<svg xmlns="http://www.w3.org/2000/svg" xmlns:xlink="http://www.w3.org/1999/xlink" width="147.771" height="102.704" viewBox="0 0 147.771 102.704">
  <defs>
    <linearGradient id="linear-gradient" x1="0.5" y1="0.066" x2="0.697" y2="1" gradientUnits="objectBoundingBox">
      <stop offset="0" stop-color="#e0f6ff"/>
      <stop offset="1" stop-color="#00aaf2"/>
    </linearGradient>
    <linearGradient id="linear-gradient-3" x1="0.831" y1="0.199" x2="-0.187" y2="1.619" gradientUnits="objectBoundingBox">
      <stop offset="0" stop-color="#58c7f7"/>
      <stop offset="1" stop-color="#fff"/>
    </linearGradient>
    <linearGradient id="linear-gradient-4" x1="0.625" y1="0.052" x2="0.799" y2="0.71" gradientUnits="objectBoundingBox">
      <stop offset="0" stop-color="#4fa9d0"/>
      <stop offset="1" stop-color="#43c7ff"/>
    </linearGradient>
    <linearGradient id="linear-gradient-5" x1="0.172" y1="0.065" x2="0.381" y2="0.805" gradientUnits="objectBoundingBox">
      <stop offset="0" stop-color="#00b3ff"/>
      <stop offset="1" stop-color="#a8e5ff"/>
    </linearGradient>
    <linearGradient id="linear-gradient-6" x1="0.585" y1="1" x2="0.435" gradientUnits="objectBoundingBox">
      <stop offset="0" stop-color="#fbd393"/>
      <stop offset="1" stop-color="#fffaf4"/>
    </linearGradient>
    <linearGradient id="linear-gradient-7" x1="0.5" x2="0.5" y2="1" gradientUnits="objectBoundingBox">
      <stop offset="0" stop-color="#f8ddb1"/>
      <stop offset="1" stop-color="#fbd394"/>
    </linearGradient>
    <linearGradient id="linear-gradient-8" x1="0.5" x2="0.5" y2="1" gradientUnits="objectBoundingBox">
      <stop offset="0" stop-color="#fff"/>
      <stop offset="1" stop-color="#ebd4bb"/>
    </linearGradient>
    <linearGradient id="linear-gradient-10" x1="0.5" x2="0.5" y2="1" gradientUnits="objectBoundingBox">
      <stop offset="0" stop-color="#fefaf6"/>
      <stop offset="1" stop-color="#ebd2b8"/>
    </linearGradient>
    <linearGradient id="linear-gradient-14" x1="0.5" y1="1" x2="0.5" y2="-0.11" gradientUnits="objectBoundingBox">
      <stop offset="0" stop-color="#c2756a"/>
      <stop offset="1" stop-color="#ffe7e2"/>
    </linearGradient>
    <linearGradient id="linear-gradient-18" x1="-0.202" y1="0.64" x2="1" y2="0.642" gradientUnits="objectBoundingBox">
      <stop offset="0" stop-color="#f8c9c2"/>
      <stop offset="1" stop-color="#bd6d61"/>
    </linearGradient>
  </defs>
  <g id="Group_419" data-name="Group 419" transform="translate(-187.729 -81.412)">
    <g id="Group_132" data-name="Group 132" transform="translate(187.729 92.169)">
      <path id="Path_670" data-name="Path 670" d="M72.715-.473c17.466,0-.849,16.308,11.859,22.136,23.4,10.731,33.787,16.988,33.787,34,0,26.016-43.785,35.691-71.734,35.691S-29.392,75.42-29.392,49.4c0-14.907,42.5-13.861,56.292-23.154S55.249-.473,72.715-.473Z" transform="translate(29.392 0.473)" opacity="0.999" fill="url(#linear-gradient)"/>
      <path id="Path_363" data-name="Path 363" d="M68.046,40.7C77.26,30.037,94.4,30.225,94.4,30.225s24.755,7.387,23.957,29.1c0,26.016-43.785,35.691-71.734,35.691S-29.392,79.076-29.392,53.06c0-5.873,9.6,3.429,24.751,2.333S32.776,35.416,37.4,34.175C45.018,32.127,58.832,51.365,68.046,40.7Z" transform="translate(29.392 -3.183)" opacity="0.999" fill="url(#linear-gradient)"/>
      <path id="Path_680" data-name="Path 680" d="M8.506,13.414c8.757,0,18.848-.7,18.848-6.051S6.461-.584,1.749.929-.251,13.414,8.506,13.414Z" transform="translate(117.465 5.558)" opacity="0.614" fill="url(#linear-gradient-3)"/>
    </g>
    <g id="Group_418" data-name="Group 418" transform="translate(187.729 121.164)">
      <path id="Path_363-2" data-name="Path 363" d="M61.165,54.518c13.7-4.568,57.2-19.308,57.2,6.707S74.581,96.916,46.633,96.916c-26.634,0-76.759-15.979-75.963-42.4-.171-.972,18.849,8.968,36.514,8.279S47.463,59.086,61.165,54.518Z" transform="translate(29.385 -34.082)" opacity="0.124" fill="url(#linear-gradient-4)"/>
      <path id="Path_669" data-name="Path 669" d="M19.336,34.295c27.564,8.65,53.73,31.672,65.785,34.341S106,68.5,118.361,59.585c0,26.016-43.785,35.691-71.734,35.691S-29.392,79.34-29.392,53.324C-29.392,49.9-8.227,25.645,19.336,34.295Z" transform="translate(29.392 -32.442)" opacity="0.34" fill="url(#linear-gradient-5)"/>
    </g>
    <g id="Group_428" data-name="Group 428" transform="translate(232.412 81.412)">
      <rect id="Rectangle_1416" data-name="Rectangle 1416" width="4.388" height="21.061" transform="translate(43.077 58.828)" fill="url(#linear-gradient-6)"/>
      <rect id="Rectangle_1417" data-name="Rectangle 1417" width="19.306" height="21.061" transform="translate(23.771 58.828)" fill="#fefaf6"/>
      <path id="Path_679" data-name="Path 679" d="M4.263-33.518H18.628l3.31,38.86H0Z" transform="translate(25.526 49.975)" fill="url(#linear-gradient-7)"/>
      <path id="Path_677" data-name="Path 677" d="M3.751-33.518H16.393l2.913,38.86H0Z" transform="translate(25.526 49.975)" fill="url(#linear-gradient-8)"/>
      <path id="Path_672" data-name="Path 672" d="M4.388,0H7.02a4.388,4.388,0,0,1,4.388,4.388v10.53H0V4.388A4.388,4.388,0,0,1,4.388,0Z" transform="translate(28.159 62.338)" fill="#c77c6c"/>
      <path id="Path_671" data-name="Path 671" d="M6.355.008a4.573,4.573,0,0,1,5.484,4.375v10.53H3.518s.013-8.9,0-11.392C3.5-.205,6.355.008,6.355.008Z" transform="translate(27.728 62.343)" fill="#f1e3cd"/>
      <rect id="Rectangle_1419" data-name="Rectangle 1419" width="39.891" height="4.388" transform="translate(17.114 89.541)" fill="#fbd69a"/>
      <path id="Path_673" data-name="Path 673" d="M-1.3-6.475H4.758L7.136-.793h4.525l.524-5.682H17.64L18.6-.793h5.169l1.763-5.682h5.223L27,3.595H3.436Z" transform="translate(20.42 55.233)" fill="url(#linear-gradient-7)"/>
      <rect id="Rectangle_1420" data-name="Rectangle 1420" width="47.965" height="4.388" transform="translate(12.355 93.929)" fill="#fbd69a"/>
      <path id="Path_674" data-name="Path 674" d="M1.3,0H69.9l2.413,4.388H0Z" transform="translate(0 98.316)" fill="#fbd69a"/>
      <path id="Path_675" data-name="Path 675" d="M-1.3-6.475H2.9L5.838-.793H9.906l.524-5.682h5.454l.965,5.682h3.732L22.5-6.475H26.52L22.914,3.595H3.23Z" transform="translate(20.42 55.233)" fill="url(#linear-gradient-10)"/>
      <rect id="Rectangle_1421" data-name="Rectangle 1421" width="36.879" height="4.388" transform="translate(17.114 89.541)" fill="url(#linear-gradient-10)"/>
      <rect id="Rectangle_1425" data-name="Rectangle 1425" width="30.714" height="9.653" transform="translate(22.893 79.888)" fill="#fbd69a"/>
      <rect id="Rectangle_1422" data-name="Rectangle 1422" width="44.649" height="4.388" transform="translate(12.355 93.929)" fill="url(#linear-gradient-10)"/>
      <path id="Path_676" data-name="Path 676" d="M1.222,0h64.35l2.264,4.388H0Z" transform="translate(0 98.316)" fill="url(#linear-gradient-10)"/>
      <rect id="Rectangle_1423" data-name="Rectangle 1423" width="1.755" height="21.061" transform="translate(34.301 20.216)" fill="url(#linear-gradient-14)"/>
      <rect id="Rectangle_1426" data-name="Rectangle 1426" width="30.714" height="9.653" transform="translate(20.261 79.888)" fill="url(#linear-gradient-10)"/>
      <rect id="Rectangle_1427" data-name="Rectangle 1427" width="20.183" height="3.51" transform="translate(26.404 13.196)" fill="url(#linear-gradient-7)"/>
      <rect id="Rectangle_1428" data-name="Rectangle 1428" width="12.285" height="3.51" transform="translate(31.669 9.686)" fill="url(#linear-gradient-7)"/>
      <path id="Path_678" data-name="Path 678" d="M1.037,0H2.508l1,9.686H0Z" transform="translate(34.301)" fill="url(#linear-gradient-18)"/>
      <rect id="Rectangle_1429" data-name="Rectangle 1429" width="17.551" height="3.51" transform="translate(26.404 13.196)" fill="#efddc9"/>
      <rect id="Rectangle_1430" data-name="Rectangle 1430" width="12.285" height="3.51" transform="translate(29.036 9.686)" fill="#efddc9"/>
    </g>
  </g>
</svg>
