<svg xmlns="http://www.w3.org/2000/svg" width="30.14" height="30" viewBox="0 0 30.14 30">
  <g id="heart" transform="translate(0 -0.498)">
    <path id="Path_690" data-name="Path 690" d="M13.415,81.676C17.2,75.45,24.654,78.05,26.227,83.047c2.2,7-1.527,15.356-12.812,20.415C2.13,98.4-1.6,90.043.6,83.047,2.177,78.05,9.629,75.45,13.415,81.676Zm0,0" transform="translate(0 -72.963)" fill="#ff6f6f"/>
    <path id="Path_691" data-name="Path 691" d="M13.415,103.461C2.13,98.4-1.6,90.042.6,83.047c1.01-3.207,5.628-7.229,10.986-3.555-1.984.366-4.542,3.692-5.153,6.32C6.05,89.473,5.1,98.4,13.415,103.461Zm0,0" transform="translate(0 -72.963)" fill="#e22b2b"/>
    <g id="Group_431" data-name="Group 431" transform="translate(0.316 0.498)">
      <path id="Path_692" data-name="Path 692" d="M346.846,7l2.463-.65a.807.807,0,0,0,0-1.561l-2.463-.65a.808.808,0,0,1-.575-.575l-.65-2.463a.807.807,0,0,0-1.561,0l-.65,2.463a.807.807,0,0,1-.574.575l-2.463.65a.807.807,0,0,0,0,1.561l2.463.65a.807.807,0,0,1,.574.574l.65,2.463a.807.807,0,0,0,1.561,0l.65-2.463A.808.808,0,0,1,346.846,7Zm0,0" transform="translate(-320.087 -0.498)" fill="#ffbf3e"/>
      <path id="Path_693" data-name="Path 693" d="M10.665,364.2l1.843-.486a.6.6,0,0,0,0-1.168l-1.843-.486a.6.6,0,0,1-.43-.43L9.75,359.79a.6.6,0,0,0-1.167,0L8.1,361.632a.6.6,0,0,1-.43.43l-1.843.486a.6.6,0,0,0,0,1.168l1.843.486a.6.6,0,0,1,.43.43l.486,1.842a.6.6,0,0,0,1.167,0l.486-1.842A.6.6,0,0,1,10.665,364.2Zm0,0" transform="translate(-5.374 -338.216)" fill="#ffbf3e"/>
    </g>
  </g>
</svg>
