<svg xmlns="http://www.w3.org/2000/svg" width="27.057" height="26" viewBox="0 0 27.057 26">
  <g id="calendar_1_" data-name="calendar (1)" transform="translate(0 -10)">
    <g id="Group_434" data-name="Group 434" transform="translate(0 16.553)">
      <path id="Path_698" data-name="Path 698" d="M0,134v17.333a2.116,2.116,0,0,0,2.114,2.114H24.943a2.116,2.116,0,0,0,2.114-2.114V134Z" transform="translate(0 -134)" fill="#d8dce1"/>
    </g>
    <g id="Group_435" data-name="Group 435" transform="translate(0 10.634)">
      <path id="Path_699" data-name="Path 699" d="M24.943,22H2.114A2.116,2.116,0,0,0,0,24.114v3.8H27.057v-3.8A2.116,2.116,0,0,0,24.943,22ZM3.382,26.228A1.268,1.268,0,1,1,4.65,24.959,1.268,1.268,0,0,1,3.382,26.228Zm20.293,0a1.268,1.268,0,1,1,1.268-1.268A1.268,1.268,0,0,1,23.675,26.228Z" transform="translate(0 -22)" fill="#ff6f6f"/>
    </g>
    <g id="Group_451" data-name="Group 451" transform="translate(3.382 20.358)">
      <g id="Group_436" data-name="Group 436" transform="translate(8.455 0)">
        <path id="Path_700" data-name="Path 700" d="M225.691,206a1.691,1.691,0,1,0,1.691,1.691A1.693,1.693,0,0,0,225.691,206Z" transform="translate(-224 -206)" fill="#fff"/>
      </g>
      <g id="Group_460" data-name="Group 460" transform="translate(8.455 4)">
        <path id="Path_700-2" data-name="Path 700" d="M225.691,206a1.691,1.691,0,1,0,1.691,1.691A1.693,1.693,0,0,0,225.691,206Z" transform="translate(-224 -206)" fill="#fff"/>
      </g>
      <g id="Group_437" data-name="Group 437" transform="translate(4.228 0)">
        <path id="Path_701" data-name="Path 701" d="M145.691,206a1.691,1.691,0,1,0,1.691,1.691A1.693,1.693,0,0,0,145.691,206Z" transform="translate(-144 -206)" fill="#fff"/>
      </g>
      <g id="Group_438" data-name="Group 438" transform="translate(0 0)">
        <path id="Path_702" data-name="Path 702" d="M65.691,206a1.691,1.691,0,1,0,1.691,1.691A1.693,1.693,0,0,0,65.691,206Z" transform="translate(-64 -206)" fill="#fff"/>
      </g>
      <g id="Group_439" data-name="Group 439" transform="translate(12.683 0)">
        <path id="Path_703" data-name="Path 703" d="M305.691,206a1.691,1.691,0,1,0,1.691,1.691A1.693,1.693,0,0,0,305.691,206Z" transform="translate(-304 -206)" fill="#fff"/>
      </g>
      <g id="Group_440" data-name="Group 440" transform="translate(16.911 0)">
        <path id="Path_704" data-name="Path 704" d="M385.691,209.382A1.691,1.691,0,1,0,384,207.691,1.693,1.693,0,0,0,385.691,209.382Z" transform="translate(-384 -206)" fill="#fff"/>
      </g>
      <g id="Group_442" data-name="Group 442" transform="translate(4.228 4.228)">
        <path id="Path_706" data-name="Path 706" d="M145.691,286a1.691,1.691,0,1,0,1.691,1.691A1.693,1.693,0,0,0,145.691,286Z" transform="translate(-144 -286)" fill="#fff"/>
      </g>
      <g id="Group_443" data-name="Group 443" transform="translate(0 4.228)">
        <path id="Path_707" data-name="Path 707" d="M65.691,286a1.691,1.691,0,1,0,1.691,1.691A1.693,1.693,0,0,0,65.691,286Z" transform="translate(-64 -286)" fill="#f8b64c"/>
      </g>
      <g id="Group_446" data-name="Group 446" transform="translate(8.455 8.455)">
        <path id="Path_710" data-name="Path 710" d="M225.691,366a1.691,1.691,0,1,0,1.691,1.691A1.693,1.693,0,0,0,225.691,366Z" transform="translate(-224 -366)" fill="#fff"/>
      </g>
      <g id="Group_447" data-name="Group 447" transform="translate(4.228 8.455)">
        <path id="Path_711" data-name="Path 711" d="M145.691,366a1.691,1.691,0,1,0,1.691,1.691A1.693,1.693,0,0,0,145.691,366Z" transform="translate(-144 -366)" fill="#fff"/>
      </g>
      <g id="Group_448" data-name="Group 448" transform="translate(0 8.455)">
        <path id="Path_712" data-name="Path 712" d="M65.691,366a1.691,1.691,0,1,0,1.691,1.691A1.693,1.693,0,0,0,65.691,366Z" transform="translate(-64 -366)" fill="#f8b64c"/>
      </g>
      <circle id="Ellipse_78" data-name="Ellipse 78" cx="3.575" cy="3.575" r="3.575" transform="translate(12.618 4.688)" fill="#26b999"/>
      <path id="Path_721" data-name="Path 721" d="M43.244,39.053a.3.3,0,0,0-.415.074l-1.667,2.395-1.176-.966a.3.3,0,0,0-.378.461l1.426,1.17a.3.3,0,0,0,.189.068l.041,0a.3.3,0,0,0,.2-.125l1.851-2.66A.3.3,0,0,0,43.244,39.053Z" transform="translate(-25.094 -32.524)" fill="#fff"/>
    </g>
    <g id="Group_453" data-name="Group 453" transform="translate(2.748 10)">
      <g id="Group_452" data-name="Group 452" transform="translate(0 0)">
        <path id="Path_715" data-name="Path 715" d="M52.634,14.228A.634.634,0,0,1,52,13.593V10.634a.634.634,0,1,1,1.268,0v2.959A.634.634,0,0,1,52.634,14.228Z" transform="translate(-52 -10)" fill="#5c546a"/>
      </g>
    </g>
    <g id="Group_455" data-name="Group 455" transform="translate(23.041 10)">
      <g id="Group_454" data-name="Group 454" transform="translate(0 0)">
        <path id="Path_716" data-name="Path 716" d="M436.634,14.228a.634.634,0,0,1-.634-.634V10.634a.634.634,0,1,1,1.268,0v2.959A.634.634,0,0,1,436.634,14.228Z" transform="translate(-436 -10)" fill="#5c546a"/>
      </g>
    </g>
    <g id="Group_456" data-name="Group 456" transform="translate(3.382 20.358)">
      <circle id="Ellipse_75" data-name="Ellipse 75" cx="1.691" cy="1.691" r="1.691" transform="translate(0 0)" fill="#f8b64c"/>
    </g>
  </g>
</svg>
