<svg xmlns="http://www.w3.org/2000/svg" width="34.64" height="30" viewBox="0 0 34.64 30">
  <g id="Group_430" data-name="Group 430" transform="translate(-150 -228.018)">
    <path id="Path_689" data-name="Path 689" d="M17.32,0c9.565,0,17.32,1.809,17.32,4.041S26.885,8.083,17.32,8.083,0,6.062,0,4.041,7.754,0,17.32,0Z" transform="translate(150 249.936)" fill="#04a3e7"/>
    <path id="Path_686" data-name="Path 686" d="M13.769,2A8.975,8.975,0,0,0,5,11.18c0,6.885,8.769,17.048,8.769,17.048s8.769-10.164,8.769-17.048A8.975,8.975,0,0,0,13.769,2Zm0,12.459a3.209,3.209,0,0,1-3.132-3.279A3.209,3.209,0,0,1,13.769,7.9,3.209,3.209,0,0,1,16.9,11.18,3.209,3.209,0,0,1,13.769,14.459Z" transform="translate(153.274 226.018)" fill="#f8b64c"/>
    <path id="Path_687" data-name="Path 687" d="M8.446,2A3.435,3.435,0,0,0,5,5.43C5,8,8.446,11.8,8.446,11.8S11.892,8,11.892,5.43A3.435,3.435,0,0,0,8.446,2Zm0,4.655A1.225,1.225,0,1,1,9.676,5.43,1.228,1.228,0,0,1,8.446,6.655Z" transform="translate(147.1 242.447)" fill="#ffd15c"/>
    <path id="Path_688" data-name="Path 688" d="M7.917,2A2.889,2.889,0,0,0,5,4.864c0,2.148,2.917,5.32,2.917,5.32s2.917-3.171,2.917-5.32A2.889,2.889,0,0,0,7.917,2Zm0,3.887A1.023,1.023,0,1,1,8.959,4.864,1.033,1.033,0,0,1,7.917,5.887Z" transform="translate(170.948 244.063)" fill="#ff6f6f"/>
  </g>
</svg>
