<svg xmlns="http://www.w3.org/2000/svg" xmlns:xlink="http://www.w3.org/1999/xlink" width="182" height="311" viewBox="0 0 182 311">
  <defs>
    <filter id="Rectangle_1288" x="0" y="0" width="182" height="311" filterUnits="userSpaceOnUse">
      <feOffset dy="3" input="SourceAlpha"/>
      <feGaussianBlur stdDeviation="7.5" result="blur"/>
      <feFlood flood-opacity="0.161"/>
      <feComposite operator="in" in2="blur"/>
      <feComposite in="SourceGraphic"/>
    </filter>
    <linearGradient id="linear-gradient" x1="0.116" y1="0.174" x2="0.83" y2="0.751" gradientUnits="objectBoundingBox">
      <stop offset="0" stop-color="#d07800"/>
      <stop offset="1" stop-color="#ffd6b2"/>
    </linearGradient>
    <linearGradient id="linear-gradient-2" x1="0.5" x2="0.5" y2="1" gradientUnits="objectBoundingBox">
      <stop offset="0" stop-color="#ffddac"/>
      <stop offset="1" stop-color="#e8a950"/>
    </linearGradient>
  </defs>
  <g id="Group_13" data-name="Group 13" transform="translate(-180.5 -167.5)">
    <g transform="matrix(1, 0, 0, 1, 180.5, 167.5)" filter="url(#Rectangle_1288)">
      <rect id="Rectangle_1288-2" data-name="Rectangle 1288" width="137" height="266" rx="10" transform="translate(22.5 19.5)" fill="#fff"/>
    </g>
    <path id="Path_437" data-name="Path 437" d="M10,0H127a10,10,0,0,1,10,10V59.3s-9.945,43.219-53.359,14.884S0,101.3,0,101.3V10A10,10,0,0,1,10,0Z" transform="translate(203 187)" opacity="0.47" fill="url(#linear-gradient)"/>
    <g id="employees" transform="translate(232 282.087)">
      <path id="Path_414" data-name="Path 414" d="M252.25,273.336l-6.9-2.714H220.869l-6.9,2.714a6.677,6.677,0,0,0-4.227,6.481l.837,20.908a2.226,2.226,0,0,0,2.224,2.137h40.611a2.226,2.226,0,0,0,2.224-2.137l.837-20.908A6.677,6.677,0,0,0,252.25,273.336Z" transform="translate(-177.304 -200.948)" fill="url(#linear-gradient-2)"/>
      <path id="Path_415" data-name="Path 415" d="M342.579,320.77l-1.424,24.484h6.1l-1.424-24.484Z" transform="translate(-288.396 -243.34)" fill="#ffddac"/>
      <path id="Path_416" data-name="Path 416" d="M349.652,303.633h-1.9a1.278,1.278,0,0,1-1.278-1.278v-3.174h4.452v3.174A1.278,1.278,0,0,1,349.652,303.633Z" transform="translate(-292.896 -225.09)" fill="url(#linear-gradient-2)"/>
      <rect id="Rectangle_1284" data-name="Rectangle 1284" width="15.581" height="13.355" transform="translate(48.018 60.736)" fill="url(#linear-gradient-2)"/>
      <path id="Path_417" data-name="Path 417" d="M310.5,216.982a13.294,13.294,0,0,0,15.58,0v-4.156H310.5Z" transform="translate(-262.479 -152.09)" fill="url(#linear-gradient-2)"/>
      <path id="Path_418" data-name="Path 418" d="M287.868,32.954a14.4,14.4,0,0,0-8.718,3.339s-4.637,0-4.637,5.564a41.578,41.578,0,0,0,1.113,8.868h25.6C303.448,38.483,298.162,32.4,287.868,32.954Z" transform="translate(-232.06 -0.005)" fill="url(#linear-gradient-2)"/>
      <path id="Path_419" data-name="Path 419" d="M281.191,64.573c-4.088-5.111-2.04-9.84-2.04-9.84s-4.637,0-4.637,5.564a41.578,41.578,0,0,0,1.113,8.868h5.564V64.573Z" transform="translate(-232.061 -18.446)" fill="url(#linear-gradient-2)"/>
      <path id="Path_420" data-name="Path 420" d="M294.027,116h-1.113l-1.467-2.676a1.119,1.119,0,0,0-1.188-.552c-7.329,1.341-12.146-.363-13.971-1.216a1.1,1.1,0,0,0-1.355.353,23.5,23.5,0,0,1-3.114,3.5,2.23,2.23,0,0,1-1.513.593h-.8a2.177,2.177,0,0,0-.373.04,2.353,2.353,0,0,0-1.813,2.348v.806a2.338,2.338,0,0,0,1.718,2.311,2.2,2.2,0,0,0,.678.053,1.084,1.084,0,0,1,1.136.9,11.116,11.116,0,0,0,21.87,0,1.081,1.081,0,0,1,1.077-.9h.229a2.226,2.226,0,0,0,2.226-2.226v-1.113A2.226,2.226,0,0,0,294.027,116Z" transform="translate(-225.978 -66.395)" fill="url(#linear-gradient-2)"/>
      <path id="Path_421" data-name="Path 421" d="M275.108,122.019v-8.713a1.053,1.053,0,0,0-.174.17,23.5,23.5,0,0,1-3.114,3.5,2.23,2.23,0,0,1-1.513.593h-.8a2.178,2.178,0,0,0-.373.04,2.353,2.353,0,0,0-1.813,2.348v.806a2.338,2.338,0,0,0,1.718,2.311,2.2,2.2,0,0,0,.678.053,1.084,1.084,0,0,1,1.136.9,11.088,11.088,0,0,0,13.142,8.892A11.133,11.133,0,0,1,275.108,122.019Z" transform="translate(-225.978 -67.96)" fill="url(#linear-gradient-2)"/>
      <g id="Group_10" data-name="Group 10" transform="translate(43.566 66.746)">
        <path id="Path_422" data-name="Path 422" d="M293.953,259.066l-8.119-7.1a1.113,1.113,0,0,0-1.52.051l-2.6,2.6,5.171,7.757a2.226,2.226,0,0,0,3.426.339Z" transform="translate(-281.711 -251.686)" fill="url(#linear-gradient-2)"/>
        <path id="Path_423" data-name="Path 423" d="M360.869,259.066l8.119-7.1a1.113,1.113,0,0,1,1.52.051l2.6,2.6-5.171,7.757a2.226,2.226,0,0,1-3.426.339Z" transform="translate(-348.627 -251.686)" fill="url(#linear-gradient-2)"/>
        <path id="Path_424" data-name="Path 424" d="M463.574,310.668l4.842-4.842a6.656,6.656,0,0,1,.989,3.75l-.837,20.908a2.226,2.226,0,0,1-2.224,2.137h-4.725V315.389A6.677,6.677,0,0,1,463.574,310.668Z" transform="translate(-433.796 -297.453)" fill="#ffddac"/>
        <path id="Path_425" data-name="Path 425" d="M282.989,367.287h5.235a1.278,1.278,0,0,0,1.278-1.278v-.783a1.278,1.278,0,0,0-1.278-1.278h-5.235a1.278,1.278,0,0,0-1.278,1.278v.783A1.278,1.278,0,0,0,282.989,367.287Z" transform="translate(-281.711 -346.587)" fill="url(#linear-gradient-2)"/>
      </g>
      <path id="Path_426" data-name="Path 426" d="M36.059,316.194l-6-2.621H10.011l-6,2.621a6.677,6.677,0,0,0-4,6.4l.612,14.442a2.226,2.226,0,0,0,2.224,2.132h34.38a2.226,2.226,0,0,0,2.224-2.132l.612-14.442A6.678,6.678,0,0,0,36.059,316.194Z" transform="translate(-0.001 -237.256)" fill="#ffddac"/>
      <rect id="Rectangle_1285" data-name="Rectangle 1285" width="11.129" height="11.129" transform="translate(14.467 68.527)" fill="url(#linear-gradient-2)"/>
      <path id="Path_427" data-name="Path 427" d="M93.551,266.432a13.31,13.31,0,0,0,11.129,0V263.2H93.551Z" transform="translate(-79.084 -194.673)" fill="url(#linear-gradient-2)"/>
      <circle id="Ellipse_47" data-name="Ellipse 47" cx="6.678" cy="6.678" r="6.678" transform="translate(13.354 32.913)" fill="url(#linear-gradient-2)"/>
      <ellipse id="Ellipse_48" data-name="Ellipse 48" cx="13.355" cy="12.799" rx="13.355" ry="12.799" transform="translate(6.676 38.477)" fill="url(#linear-gradient-2)"/>
      <path id="Path_428" data-name="Path 428" d="M52.081,103.974c-4.452-4.452-5.117-8.289-5.012-10.7a12.494,12.494,0,0,0-3.891,9.029,12.3,12.3,0,0,0,1.913,6.591Z" transform="translate(-36.501 -51.028)" fill="url(#linear-gradient-2)"/>
      <path id="Path_429" data-name="Path 429" d="M63.138,147.455a6.032,6.032,0,0,0-.638-.046,2.226,2.226,0,0,1-1.574-.652l-.961-.961a2.208,2.208,0,0,0-1.439-.648c-2.166-.121-8.173-.66-12.945-3a1.111,1.111,0,0,0-1.437.365,22.772,22.772,0,0,1-3.665,4.309,2.222,2.222,0,0,1-1.509.589h-.8a2.2,2.2,0,0,0-.373.04,2.353,2.353,0,0,0-1.813,2.348v.806a2.338,2.338,0,0,0,1.718,2.311,2.205,2.205,0,0,0,.678.053,1.084,1.084,0,0,1,1.136.9,11.116,11.116,0,0,0,21.87,0,1.084,1.084,0,0,1,1.136-.9,2.2,2.2,0,0,0,.678-.053,2.338,2.338,0,0,0,1.718-2.311v-1.014A2.323,2.323,0,0,0,63.138,147.455Z" transform="translate(-30.417 -92.237)" fill="url(#linear-gradient-2)"/>
      <path id="Path_430" data-name="Path 430" d="M43.772,157.545v-8.8a23.381,23.381,0,0,1-3.293,3.756,2.222,2.222,0,0,1-1.509.589h-.8a2.177,2.177,0,0,0-.373.04,2.353,2.353,0,0,0-1.813,2.348v.807A2.338,2.338,0,0,0,37.7,158.6a2.205,2.205,0,0,0,.678.053,1.084,1.084,0,0,1,1.136.9,11.088,11.088,0,0,0,13.142,8.892A11.133,11.133,0,0,1,43.772,157.545Z" transform="translate(-30.418 -97.921)" fill="url(#linear-gradient-2)"/>
      <g id="Group_11" data-name="Group 11" transform="translate(0 73.439)">
        <path id="Path_431" data-name="Path 431" d="M5.984,344.852l-4.066-4.879a6.66,6.66,0,0,0-1.912,4.941l.612,14.442a2.226,2.226,0,0,0,2.224,2.132H7.79V349.84A7.789,7.789,0,0,0,5.984,344.852Z" transform="translate(0 -333.013)" fill="url(#linear-gradient-2)"/>
        <path id="Path_432" data-name="Path 432" d="M210.5,344.852l4.066-4.88a6.66,6.66,0,0,1,1.912,4.941l-.612,14.442a2.226,2.226,0,0,1-2.224,2.132h-4.948V349.839A7.79,7.79,0,0,1,210.5,344.852Z" transform="translate(-176.419 -333.012)" fill="url(#linear-gradient-2)"/>
        <path id="Path_433" data-name="Path 433" d="M82.247,295.291a1.113,1.113,0,0,0-1.574,0l-5.38,5.38a.722.722,0,0,1-1.021,0l-5.38-5.38a1.113,1.113,0,0,0-1.574,0l-2.552,2.552,4.118,6.684a1.113,1.113,0,0,0,1.67.263l2.468-2.106a.393.393,0,0,1,.647.3V323.44H75.9V302.983a.393.393,0,0,1,.647-.3l2.468,2.106a1.113,1.113,0,0,0,1.67-.263l4.118-6.684Z" transform="translate(-54.751 -294.966)" fill="url(#linear-gradient-2)"/>
        <path id="Path_434" data-name="Path 434" d="M66.045,403.268h4.122a1.278,1.278,0,0,0,1.278-1.278v-.783a1.278,1.278,0,0,0-1.278-1.278H66.045a1.278,1.278,0,0,0-1.278,1.278v.783A1.278,1.278,0,0,0,66.045,403.268Z" transform="translate(-54.751 -383.697)" fill="url(#linear-gradient-2)"/>
      </g>
    </g>
    <text id="Operator" transform="translate(272 429)" fill="#d59f63" font-size="12" font-family="SFProText-Bold, SF Pro Text" font-weight="700"><tspan x="-27.073" y="0">Operator</tspan></text>
  </g>
</svg>
