<svg xmlns="http://www.w3.org/2000/svg" xmlns:xlink="http://www.w3.org/1999/xlink" width="182" height="311" viewBox="0 0 182 311">
  <defs>
    <filter id="Rectangle_1287" x="0" y="0" width="182" height="311" filterUnits="userSpaceOnUse">
      <feOffset dy="3" input="SourceAlpha"/>
      <feGaussianBlur stdDeviation="7.5" result="blur"/>
      <feFlood flood-opacity="0.161"/>
      <feComposite operator="in" in2="blur"/>
      <feComposite in="SourceGraphic"/>
    </filter>
    <linearGradient id="linear-gradient" x1="0.024" y1="0.043" x2="0.609" y2="0.652" gradientUnits="objectBoundingBox">
      <stop offset="0" stop-color="#04a3e7"/>
      <stop offset="1" stop-color="#a3e4ff"/>
    </linearGradient>
    <linearGradient id="linear-gradient-2" x1="0.5" x2="0.5" y2="1" gradientUnits="objectBoundingBox">
      <stop offset="0" stop-color="#04a3e7"/>
      <stop offset="1" stop-color="#a5e4ff"/>
    </linearGradient>
    <linearGradient id="linear-gradient-18" x1="0.863" y1="0.326" xlink:href="#linear-gradient-2"/>
    <linearGradient id="linear-gradient-21" x1="0.226" y1="0.198" x2="0.797" y2="0.893" xlink:href="#linear-gradient-2"/>
  </defs>
  <g id="Group_12" data-name="Group 12" transform="translate(-11.5 -167.5)">
    <g transform="matrix(1, 0, 0, 1, 11.5, 167.5)" filter="url(#Rectangle_1287)">
      <rect id="Rectangle_1287-2" data-name="Rectangle 1287" width="137" height="266" rx="10" transform="translate(22.5 19.5)" fill="#fff"/>
    </g>
    <path id="Path_436" data-name="Path 436" d="M10,0H127a10,10,0,0,1,10,10V59.3s-9.945,43.219-53.359,14.884c-14.631-9.549-20.689-12.138-41.6-5.361S0,101.3,0,101.3V10A10,10,0,0,1,10,0Z" transform="translate(34 187)" fill="url(#linear-gradient)"/>
    <g id="manager" transform="translate(71 312.962)">
      <g id="Group_4" data-name="Group 4" transform="translate(23.356 39.72)">
        <path id="Path_393" data-name="Path 393" d="M192.2,286.224l.02.015h0v-.021l.009.014.011-.008h0l0-.005v0l7.736-5.741h0v-4.324a16.565,16.565,0,0,0-1.674,1.461c-3.395,3.408-6.724,2.824-6.724,2.824-2.031.059-4.924-2.251-6.157-3.327q-.471-.41-.967-.783v4.148h0Z" transform="translate(-184.463 -276.157)" fill="url(#linear-gradient-2)"/>
        <path id="Path_394" data-name="Path 394" d="M228.494,347.868h0l-2.5,3.786h0Z" transform="translate(-220.733 -337.785)" fill="url(#linear-gradient-2)"/>
      </g>
      <path id="Path_395" data-name="Path 395" d="M130.877,12.394h4.816a3.846,3.846,0,0,0,1.293-.223c.873-.311,2.259-.883,3.309-1.326a3.848,3.848,0,0,1,2.913-.041l5.069,1.976a6.323,6.323,0,0,1,3.758,4.947V27.774a19.589,19.589,0,0,1,1.994-6.109,4.558,4.558,0,0,0,.581-2.227V10.77s-.487-4.251-4.246-5.256c0,0,1.531-3.62-2.436-4.477H133.313c-5.343,0-9.675,4.81-9.675,10.743V18.15a6.5,6.5,0,0,0,1.194,3.8,7.528,7.528,0,0,1,1.346,4.1V17.611C127.118,12.934,130.877,12.394,130.877,12.394Z" transform="translate(-107.984)" fill="url(#linear-gradient-2)"/>
      <path id="Path_396" data-name="Path 396" d="M155.987,102.071s3.329.584,6.724-2.824a16.565,16.565,0,0,1,1.674-1.462c.058-.044.114-.09.172-.133,1.5-1.121,4.39-4.229,5-11.812V75.793a6.323,6.323,0,0,0-3.758-4.947l-5.069-1.976a3.848,3.848,0,0,0-2.913.041c-1.05.443-2.437,1.016-3.309,1.326a3.85,3.85,0,0,1-1.293.223H148.4s-3.759.541-4.7,5.217v10.4s.164,8.212,5.06,11.811c.034.025.067.053.1.078q.5.372.967.783C151.063,99.82,153.956,102.13,155.987,102.071Z" transform="translate(-125.507 -58.066)" fill="url(#linear-gradient-2)"/>
      <g id="Group_5" data-name="Group 5" transform="translate(25.453 49.803)">
        <path id="Path_397" data-name="Path 397" d="M257.4,376.379l-1.347,2.147,1.244,8.7,3.117-6.293Z" transform="translate(-249.088 -372.371)" fill="url(#linear-gradient-2)"/>
        <path id="Path_398" data-name="Path 398" d="M204.162,387.151l1.249-8.742-1.358-2.166-3.026,4.577Z" transform="translate(-201.026 -372.254)" fill="url(#linear-gradient-2)"/>
        <path id="Path_399" data-name="Path 399" d="M225.262,351.657l-.106.16,2.609-3.931v-.014h0Z" transform="translate(-222.101 -347.871)" fill="url(#linear-gradient-2)"/>
      </g>
      <g id="Group_6" data-name="Group 6" transform="translate(28.479 49.781)">
        <path id="Path_400" data-name="Path 400" d="M230.112,362.729l-1.244-8.7,1.347-2.147h0l-2.65-4.008h0v.014l-2.609,3.931-.029.043h0l1.358,2.166-1.249,8.742h0l2.528,5.1,2.547-5.143Z" transform="translate(-224.927 -347.849)" fill="#04a3e7"/>
        <path id="Path_401" data-name="Path 401" d="M245.831,488.719l.241-.268-.249.253Z" transform="translate(-243.177 -468.664)" fill="url(#linear-gradient-2)"/>
        <path id="Path_402" data-name="Path 402" d="M243.98,488.7l-.249-.253.241.268Z" transform="translate(-241.35 -468.664)" fill="url(#linear-gradient-2)"/>
        <path id="Path_403" data-name="Path 403" d="M245.67,490.319l.011.013.012-.013-.011-.011h0Z" transform="translate(-243.044 -470.259)" fill="url(#linear-gradient-2)"/>
        <path id="Path_404" data-name="Path 404" d="M245.926,347.719l0,.005,0,0Z" transform="translate(-243.264 -347.719)" fill="url(#linear-gradient-2)"/>
        <path id="Path_405" data-name="Path 405" d="M245.761,347.719v.021l.009-.007Z" transform="translate(-243.123 -347.719)" fill="url(#linear-gradient-2)"/>
      </g>
      <g id="Group_7" data-name="Group 7" transform="translate(19.18 44.044)">
        <path id="Path_406" data-name="Path 406" d="M245.784,312.65l0,0h0l-.011.008-.009.007h0l2.65,4.008,3.014,4.559,6.272-12.663-4.176-1.662h0Z" transform="translate(-233.823 -306.909)" fill="url(#linear-gradient-2)"/>
        <path id="Path_407" data-name="Path 407" d="M160.784,316.657h0l.134-.2,2.5-3.786h0l-.02-.015-7.74-5.743h0l-4.176,1.662,6.272,12.663Z" transform="translate(-151.485 -306.909)" fill="url(#linear-gradient-2)"/>
      </g>
      <g id="Group_8" data-name="Group 8" transform="translate(31.117 45.706)">
        <path id="Path_408" data-name="Path 408" d="M276.945,339.146l-1.4-9.42a6.982,6.982,0,0,0-4.145-5.533l-13.591-5.46,3.61,8.038-4.514.077,1.531,3.246-12.306,12.5-.241.268.009.017h28.2A3.122,3.122,0,0,0,276.945,339.146Z" transform="translate(-245.867 -318.732)" fill="url(#linear-gradient-2)"/>
        <path id="Path_409" data-name="Path 409" d="M245.771,490.39l-.012.013h.024Z" transform="translate(-245.76 -466.255)" fill="url(#linear-gradient-2)"/>
      </g>
      <g id="Group_9" data-name="Group 9" transform="translate(31.101 45.706)">
        <path id="Path_410" data-name="Path 410" d="M248.307,337.689l-2.547,5.143h0l.008.016.249-.253,12.306-12.5-1.531-3.246,4.514-.077-3.61-8.038L251.425,331.4Z" transform="translate(-245.745 -318.732)" fill="url(#linear-gradient-18)"/>
        <path id="Path_411" data-name="Path 411" d="M245.642,490.27l.011-.011h0l-.008-.008-.008.015Z" transform="translate(-245.638 -466.135)" fill="url(#linear-gradient-18)"/>
      </g>
      <path id="Path_412" data-name="Path 412" d="M31.106,342.866l0,0-.241-.268-12.306-12.5,1.531-3.246-4.514-.077,3.61-8.038-13.591,5.46a6.982,6.982,0,0,0-4.145,5.533l-1.4,9.42a3.122,3.122,0,0,0,2.852,3.735H31.117Z" transform="translate(0 -273.025)" fill="url(#linear-gradient-2)"/>
      <path id="Path_413" data-name="Path 413" d="M138.538,342.863l-.008-.015-.008-.016h0l-2.528-5.1-3.136-6.331-6.272-12.663-3.61,8.038,4.514.077-1.531,3.246,12.306,12.5.249.253.008.008h0l.011.011.013.013Z" transform="translate(-107.405 -273.026)" fill="url(#linear-gradient-21)"/>
    </g>
    <text id="Admin_Instansi" data-name="Admin Instansi" transform="translate(102 429)" fill="#04a3e7" font-size="12" font-family="SFProText-Bold, SF Pro Text" font-weight="700"><tspan x="-44.678" y="0">Admin Instansi</tspan></text>
  </g>
</svg>
