<svg xmlns="http://www.w3.org/2000/svg" xmlns:xlink="http://www.w3.org/1999/xlink" width="377.203" height="203.817" viewBox="0 0 377.203 203.817">
  <defs>
    <linearGradient id="linear-gradient" x1="0.476" y1="-0.057" x2="0.469" y2="0.391" gradientUnits="objectBoundingBox">
      <stop offset="0" stop-color="#ade0ff"/>
      <stop offset="1" stop-color="#fff"/>
    </linearGradient>
    <linearGradient id="linear-gradient-2" x1="0.52" y1="0.122" x2="0.918" y2="1.291" gradientUnits="objectBoundingBox">
      <stop offset="0" stop-color="#a2dafb"/>
      <stop offset="1" stop-color="#fff"/>
    </linearGradient>
    <linearGradient id="linear-gradient-3" x1="0.121" y1="0.111" x2="0.421" y2="1" gradientUnits="objectBoundingBox">
      <stop offset="0" stop-color="#a4dbfc"/>
      <stop offset="1" stop-color="#fff"/>
    </linearGradient>
    <linearGradient id="linear-gradient-7" x1="0.431" y1="0.296" x2="0.5" y2="1" gradientUnits="objectBoundingBox">
      <stop offset="0" stop-color="#2ebdd8"/>
      <stop offset="1" stop-color="#fff"/>
      <stop offset="1" stop-color="#5f83e6"/>
    </linearGradient>
    <linearGradient id="linear-gradient-8" x1="0.569" y1="0.296" xlink:href="#linear-gradient-7"/>
    <linearGradient id="linear-gradient-9" x1="0.5" x2="0.5" y2="1" gradientUnits="objectBoundingBox">
      <stop offset="0" stop-color="#04a3e7"/>
      <stop offset="1" stop-color="#cdd6fc"/>
    </linearGradient>
    <linearGradient id="linear-gradient-10" x1="0.555" y1="1.069" x2="0.573" y2="0.165" gradientUnits="objectBoundingBox">
      <stop offset="0" stop-color="#b58a57"/>
      <stop offset="1" stop-color="#efefef"/>
    </linearGradient>
    <linearGradient id="linear-gradient-11" x1="0.5" x2="0.5" y2="1" gradientUnits="objectBoundingBox">
      <stop offset="0" stop-color="#b0de5b"/>
      <stop offset="1" stop-color="#7eb220"/>
    </linearGradient>
    <linearGradient id="linear-gradient-12" x1="0.846" y1="0.461" x2="0.086" y2="0.955" gradientUnits="objectBoundingBox">
      <stop offset="0" stop-color="#86bde2"/>
      <stop offset="1" stop-color="#215377"/>
    </linearGradient>
    <linearGradient id="linear-gradient-13" x1="0.313" y1="0.951" x2="2.381" y2="0.097" gradientUnits="objectBoundingBox">
      <stop offset="0" stop-color="#66a1ca"/>
      <stop offset="1" stop-color="#143d58"/>
    </linearGradient>
    <filter id="Path_649" x="119.059" y="136.131" width="33.524" height="67.686" filterUnits="userSpaceOnUse">
      <feOffset dy="3" input="SourceAlpha"/>
      <feGaussianBlur stdDeviation="3" result="blur"/>
      <feFlood flood-opacity="0.161"/>
      <feComposite operator="in" in2="blur"/>
      <feComposite in="SourceGraphic"/>
    </filter>
    <linearGradient id="linear-gradient-14" x1="0.5" x2="0.5" y2="1" gradientUnits="objectBoundingBox">
      <stop offset="0" stop-color="#727a85"/>
      <stop offset="1" stop-color="#203c65"/>
    </linearGradient>
    <linearGradient id="linear-gradient-15" x1="0.5" x2="0.5" y2="1" gradientUnits="objectBoundingBox">
      <stop offset="0" stop-color="#fff"/>
      <stop offset="1" stop-color="#b79538"/>
    </linearGradient>
    <linearGradient id="linear-gradient-17" x1="0.571" y1="0.213" x2="0.174" y2="0.951" gradientUnits="objectBoundingBox">
      <stop offset="0" stop-color="#a7d15b"/>
      <stop offset="1" stop-color="#629800"/>
    </linearGradient>
    <linearGradient id="linear-gradient-19" x1="0.5" x2="0.5" y2="1" gradientUnits="objectBoundingBox">
      <stop offset="0" stop-color="#91d3fb"/>
      <stop offset="1" stop-color="#f8fdff"/>
    </linearGradient>
    <linearGradient id="linear-gradient-20" x1="0.5" x2="0.5" y2="0.5" gradientUnits="objectBoundingBox">
      <stop offset="0" stop-color="#04a3e7"/>
      <stop offset="1" stop-color="#fff"/>
    </linearGradient>
  </defs>
  <g id="Group_186" data-name="Group 186" transform="translate(1.567 -172.535)">
    <g id="Group_185" data-name="Group 185" transform="translate(-14)">
      <path id="Path_668" data-name="Path 668" d="M197.481,4.491c68.134-6.295,95.787-23.956,95.787-23.956V88.249c0,40.869-375.7.187-375.7-40.682,0-8.108-3.391-17.346,0-24.937,5.133-11.5,23.12-20.361,66.3-27.006C53.845-15.145,129.347,10.786,197.481,4.491Z" transform="translate(96.368 192)" fill="url(#linear-gradient)"/>
      <g id="Group_184" data-name="Group 184" transform="translate(-33 686) rotate(-90)">
        <rect id="Rectangle_1425" data-name="Rectangle 1425" width="136.646" height="74.681" rx="2" transform="translate(325 257)" fill="url(#linear-gradient-2)"/>
        <rect id="Rectangle_1426" data-name="Rectangle 1426" width="129.87" height="67.905" rx="2" transform="translate(328.388 260.388)" fill="#fff"/>
        <rect id="Rectangle_1429" data-name="Rectangle 1429" width="45.172" height="24.845" transform="translate(404.051 269.422)" fill="url(#linear-gradient-3)"/>
        <rect id="Rectangle_1431" data-name="Rectangle 1431" width="45.172" height="24.845" transform="translate(341.94 269.422)" fill="url(#linear-gradient-3)"/>
        <rect id="Rectangle_1430" data-name="Rectangle 1430" width="45.172" height="24.845" transform="translate(404.051 297.655)" fill="url(#linear-gradient-3)"/>
        <rect id="Rectangle_1432" data-name="Rectangle 1432" width="45.172" height="24.845" transform="translate(341.94 297.655)" fill="url(#linear-gradient-3)"/>
        <path id="Path_672" data-name="Path 672" d="M2.66,0C4.129,0,15.4.782,15.4,2S4.129,4.4,2.66,4.4A2.463,2.463,0,0,1,0,2.2,2.463,2.463,0,0,1,2.66,0Z" transform="translate(398 265) rotate(90)" fill="#98d6fb"/>
      </g>
      <g id="Group_182" data-name="Group 182" transform="translate(26.271 29.783)">
        <path id="Path_562" data-name="Path 562" d="M4.814.024C3.8.217,4.8,2.569,3.6,4.617S1.677,5.9,1.085,8.354s2.822,4.229,2.477,6.427S.318,15.252.015,17.713,3.984,21.558,3.5,25.85c-.374,3.331-3.748-.131-2.418,3.025s4.149,6.566,5.759,6.641,6.594-7.507,6.68-9.307c.164-3.448-3.254.142-3.359-2.6s1.818-3.436,1.726-6.983-2.675,1.4-2.675-2.258,1.695-5.859.95-8.924C9.319,1.967,7.748,7.651,7.24,4.322,7.306.749,5.827-.169,4.814.024Z" transform="translate(296.181 257.277) rotate(-7)" fill="url(#linear-gradient-7)"/>
        <path id="Path_563" data-name="Path 563" d="M1.16,12.987C1.032,4.835.627,0,.408,0s.541,7.148.45,15.3S0,35.157,0,35.157H.886S1.287,21.139,1.16,12.987Z" transform="translate(304.654 274.193) rotate(-7)" fill="#a7b7ff"/>
        <path id="Path_570" data-name="Path 570" d="M5.125.011c.6.091.009,1.2.714,2.164s1.131.6,1.479,1.76S5.659,5.928,5.861,6.963s1.908.222,2.086,1.381S5.613,10.155,5.9,12.177c.22,1.569,2.2-.062,1.422,1.425s-2.44,3.093-3.387,3.128S.054,13.194,0,12.346c-.1-1.624,1.914.067,1.976-1.225S.91,9.5.964,7.832s1.573.658,1.573-1.064-1-2.76-.559-4.2C2.476.927,3.4,3.6,3.7,2.036,3.659.353,4.529-.079,5.125.011Z" transform="translate(313.241 278.878) rotate(14)" fill="url(#linear-gradient-8)"/>
        <path id="Path_571" data-name="Path 571" d="M.024,8.542C.144,3.18.525,0,.732,0S.222,4.7.308,10.064s.808,13.061.808,13.061H.281S-.1,13.9.024,8.542Z" transform="translate(316.025 284.241) rotate(17)" fill="#a7b7ff"/>
        <path id="Path_569" data-name="Path 569" d="M-1.158,15.149s7.633-.381,8.241,0,2.978,8.96,2.585,17.593-2.244,18.4-2.585,18.993-1.186.438-1.186.438H-.5a1.112,1.112,0,0,1-.972-.86c-.166-.795-2.53-11.6-2.687-18.57S-1.158,15.149-1.158,15.149Z" transform="translate(307.244 287.039)" fill="url(#linear-gradient-9)"/>
      </g>
      <g id="Group_183" data-name="Group 183" transform="translate(-51.548 112.301)">
        <path id="Path_663" data-name="Path 663" d="M.378.314c1.327,0,3.736.83,3.736,2.405,0,.361-2.7,2.825-4.607,2.61C-1.765,5.186-2.331,2.45-2.331,2.044-2.331.468-.949.314.378.314Z" transform="translate(178.695 185.255)" fill="url(#linear-gradient-10)"/>
        <path id="Path_662" data-name="Path 662" d="M2675.982,1075.234c-1.172-.791-5.958,3.531-9.175,7.529-2.05,2.547-6.694,7.542-6.694,7.542a2.594,2.594,0,0,0-.149,2.106c.231.555,1.167,2.326,1.717,2.515a4.993,4.993,0,0,1,2.806-2.141c.166-.05.606-.172.606-.172s-.478-.859-.872-1.46l-1.417-.692,1.5.655s9.071-6.125,11.432-9.287S2677.154,1076.025,2675.982,1075.234Z" transform="translate(-2485.33 -907.13)" fill="url(#linear-gradient-11)"/>
        <path id="Union_2" data-name="Union 2" d="M7.221,29.022l.046-3.309c-2.177-.705-5.1-1.96-6.58-3.921C-1.843,18.433,3.423,0,3.423,0l8.335,21.028L23.141,37.1l-3.294,3.643Z" transform="translate(190.889 207.38)" fill="url(#linear-gradient-12)"/>
        <g transform="matrix(1, 0, 0, 1, 63.98, 60.23)" filter="url(#Path_649)">
          <path id="Path_649-2" data-name="Path 649" d="M-4.372.587H10.944S12.17-3.75,8.671,8.746s-4.195,40.8-4.195,40.8H-1.1s-1.722-14.061-2.3-26.78c-.363-8.051-.484-14.8-.527-18.942A11.385,11.385,0,0,0-4.372.587Z" transform="translate(132.43 142.27)" fill="url(#linear-gradient-13)"/>
        </g>
        <path id="Path_650" data-name="Path 650" d="M5.216,1.032C6.316.262,5.479.5,6.535-.55,7-.606,7.961.09,9.285.248a8.328,8.328,0,0,0,2.546-.324h.52V3.013a19.735,19.735,0,0,1-5.4.514c-3.823,0-6.84.337-6.84-.653,0-.625-.211-1.247.111-1.466A27.235,27.235,0,0,1,5.216,1.032Z" transform="translate(188.796 250.324)" fill="url(#linear-gradient-14)"/>
        <path id="Path_655" data-name="Path 655" d="M4.932,0a6.486,6.486,0,0,1,6.7,6.251c0,2.537-.5,2.67-1.455,5.816-.267.115.643,3.088,0,4.287-.47.88-2.513,0-3.043,0-.669,0-.132-3.209-1.006-3.459-.851-.236-2.953.465-3.877-.745-.475-.619-.423-1.536-1.09-2.228C.61,9.365,0,10.449,0,9.406,0,5.953,1.233,0,4.932,0Z" transform="matrix(0.914, -0.407, 0.407, 0.914, 177.189, 155.865)" fill="url(#linear-gradient-15)"/>
        <path id="Path_652" data-name="Path 652" d="M3.837,1.586C4.937.815,4.1,1.051,5.156,0c.468-.056,1.427.64,2.751.8A8.328,8.328,0,0,0,10.452.477h.52V3.566A8.941,8.941,0,0,1,5.217,5.3c-1.411,0-2.247.152-3.543-.681A3.33,3.33,0,0,1,0,2.012C0,1.387.666.92.988.7S2.5,2.542,3.837,1.586Z" transform="matrix(0.695, -0.719, 0.719, 0.695, 205.34, 251.329)" fill="url(#linear-gradient-14)"/>
        <path id="Path_648" data-name="Path 648" d="M2.952-2.754C2.528-3.618,2.646-5.7,4.029-6.345c1.677-.789,4.221-2.339,8.109,1.636S18.059,4.176,19.58,9.556A71.523,71.523,0,0,1,22.2,26.687c.118,1.713.555,2.3.32,3.2-.483,2.027-5.564,1.409-8.757,1.409s-8.839-.637-8.839-.637-.841.889-.566-2.266.752-3.8,1.668-10.354S3.377-1.89,2.952-2.754Z" transform="translate(185.829 172.466)" fill="url(#linear-gradient-17)"/>
        <path id="Path_654" data-name="Path 654" d="M8.394.366c2.731,0,7.744-.394,7.744-.394l.069.557s-4.827.489-7.751.489A60.847,60.847,0,0,1-.242.366l.076-.631S6.375.366,8.394.366Z" transform="translate(191.505 194.036)" fill="#c3eb79" opacity="0.716"/>
        <path id="Path_659" data-name="Path 659" d="M9.063.371c2.935,0,8.262-.425,8.262-.425l.059.564s-5.112.513-8.253.513A64.885,64.885,0,0,1,0,.371L.105-.219S6.893.371,9.063.371Z" transform="translate(190.587 197.603)" fill="#c3eb79" opacity="0.716"/>
        <path id="Path_657" data-name="Path 657" d="M8.47.379c2.731,0,7.189-.357,7.189-.357l.1.608s-4.3.4-7.228.4A47.11,47.11,0,0,1,.466.379L.534-.136S6.451.379,8.47.379Z" transform="translate(191.43 189.557)" fill="#c3eb79" opacity="0.54"/>
        <path id="Path_658" data-name="Path 658" d="M7.555.636c2.41,0,6.74-.392,6.74-.392l.082.568s-4.187.477-6.766.477A46.776,46.776,0,0,1,.046.658L0,0S5.773.636,7.555.636Z" transform="matrix(0.999, -0.035, 0.035, 0.999, 191.86, 185.087)" fill="#c3eb79" opacity="0.617"/>
        <path id="Path_674" data-name="Path 674" d="M7.555.636c2.41,0,6.74-.392,6.74-.392l.082.568s-4.187.477-6.766.477A36.237,36.237,0,0,1,.57.65L.512.049S5.773.636,7.555.636Z" transform="matrix(0.999, -0.035, 0.035, 0.999, 190.86, 181.087)" fill="#c3eb79" opacity="0.473"/>
        <path id="Path_656" data-name="Path 656" d="M2654.825,1038.211c2.921-.561,6.846-4.573,9.573-2.684a7.751,7.751,0,0,1,3.182,6.275c-.129,1-.293,1.925-1,1.8s-2.433-3.137-4.7-3.185-1.226,2.639-1.226,2.639-.1.485-.534.185a4.952,4.952,0,0,0-1.7-1.437,3.262,3.262,0,0,0-1.863-.233c-.656.041-1.031.964-2.362.521s-1.656-.757-2.034-1.527-.194-2.17,0-2.143S2651.9,1038.771,2654.825,1038.211Z" transform="translate(-2475.71 -884.326)" fill="#737373"/>
        <path id="Path_661" data-name="Path 661" d="M2.526.136c1.517,0,2.968-.3,2.968,0S4.264.688,2.747.688,0,.441,0,.136,1.009.136,2.526.136Z" transform="matrix(0.809, 0.588, -0.588, 0.809, 196.211, 204.148)" fill="#4783aa"/>
        <path id="Path_665" data-name="Path 665" d="M1.73,0C2.7,0,3.515.347,3.515.59s-.787.439-1.757.439S0,.832,0,.59.759,0,1.73,0Z" transform="matrix(0.891, -0.454, 0.454, 0.891, 175.448, 186.123)" fill="#3e7baf"/>
        <path id="Path_664" data-name="Path 664" d="M1.177.141A3.229,3.229,0,0,0,2.172,0,2.8,2.8,0,0,1,1.086.232,2.8,2.8,0,0,1,0,0,5.64,5.64,0,0,0,1.177.141Z" transform="matrix(0.891, -0.454, 0.454, 0.891, 176.141, 186.071)" fill="#fff"/>
        <path id="Path_660" data-name="Path 660" d="M2657.941,1077.567c1.333-.791,3.647-.057,7.305,3.941a61.989,61.989,0,0,1,7.047,9.806c.8,1.365,2.045,1.213,2.045,4.464,1.268,3.75-9.092,21.619-9.092,21.619l-2.563-1.972,5.05-13.084s1.931-5.14,1.853-6.088-2.917-3.3-2.917-3.3-5.014-6.454-6.109-8.045C2659.3,1083.084,2656.609,1078.357,2657.941,1077.567Z" transform="translate(-2465.715 -910.621)" fill="url(#linear-gradient-11)"/>
      </g>
      <g id="Group_207" data-name="Group 207">
        <g id="Group_181" data-name="Group 181" transform="translate(-95 633) rotate(-90)">
          <rect id="Rectangle_1425-2" data-name="Rectangle 1425" width="49" height="35" rx="2" transform="translate(325 257)" fill="url(#linear-gradient-19)"/>
        </g>
        <rect id="Rectangle_1433" data-name="Rectangle 1433" width="14" height="18" transform="translate(165 263)" fill="#fff"/>
        <rect id="Rectangle_1434" data-name="Rectangle 1434" width="14" height="18" transform="translate(181 263)" fill="#fff"/>
        <rect id="Rectangle_1435" data-name="Rectangle 1435" width="14" height="21.79" transform="translate(165 283.5)" fill="#fff"/>
        <rect id="Rectangle_1436" data-name="Rectangle 1436" width="14" height="21.79" transform="translate(181 283.5)" fill="#fff"/>
      </g>
      <path id="Path_718" data-name="Path 718" d="M179.1,0c98.913,0,179.1,1.877,179.1,4.193S278.011,8.387,179.1,8.387,0,6.509,0,4.193,80.185,0,179.1,0Z" transform="translate(20 365)" opacity="0.354" fill="url(#linear-gradient-20)"/>
    </g>
    <path id="Path_671" data-name="Path 671" d="M7.861,3a5.452,5.452,0,0,1-.689,3.374c-.449.763-2.159,1.343-3.242,1.343A4.089,4.089,0,0,1,.719,6.03,6.448,6.448,0,0,1,0,3Z" transform="translate(302 247.142)" fill="#fff"/>
  </g>
</svg>
