<svg xmlns="http://www.w3.org/2000/svg" xmlns:xlink="http://www.w3.org/1999/xlink" width="376.699" height="207.949" viewBox="0 0 376.699 207.949">
  <defs>
    <linearGradient id="linear-gradient" x1="0.5" x2="0.5" y2="0.5" gradientUnits="objectBoundingBox">
      <stop offset="0" stop-color="#04a3e7"/>
      <stop offset="1" stop-color="#fff"/>
    </linearGradient>
    <linearGradient id="linear-gradient-2" x1="0.476" y1="-0.057" x2="0.469" y2="0.391" gradientUnits="objectBoundingBox">
      <stop offset="0" stop-color="#ade0ff"/>
      <stop offset="1" stop-color="#fff"/>
    </linearGradient>
    <linearGradient id="linear-gradient-3" x1="0.5" x2="0.5" y2="1" gradientUnits="objectBoundingBox">
      <stop offset="0" stop-color="#c8ae67"/>
      <stop offset="1" stop-color="#f2e7cb"/>
    </linearGradient>
    <linearGradient id="linear-gradient-4" x1="0.283" y1="-0.032" x2="1.067" y2="1.412" gradientUnits="objectBoundingBox">
      <stop offset="0" stop-color="#c8ae67"/>
      <stop offset="1" stop-color="#ebebeb"/>
    </linearGradient>
    <linearGradient id="linear-gradient-5" x1="0.638" y1="0.267" x2="0.5" y2="1" gradientUnits="objectBoundingBox">
      <stop offset="0" stop-color="#b0de5b"/>
      <stop offset="1" stop-color="#608817"/>
    </linearGradient>
    <linearGradient id="linear-gradient-6" x1="0.5" x2="0.5" y2="1" gradientUnits="objectBoundingBox">
      <stop offset="0" stop-color="#fff"/>
      <stop offset="1" stop-color="#b79538"/>
    </linearGradient>
    <linearGradient id="linear-gradient-7" x1="0.846" y1="0.461" x2="0.086" y2="0.955" gradientUnits="objectBoundingBox">
      <stop offset="0" stop-color="#86bde2"/>
      <stop offset="1" stop-color="#215377"/>
    </linearGradient>
    <linearGradient id="linear-gradient-8" x1="0.313" y1="0.951" x2="2.381" y2="0.097" gradientUnits="objectBoundingBox">
      <stop offset="0" stop-color="#66a1ca"/>
      <stop offset="1" stop-color="#143d58"/>
    </linearGradient>
    <filter id="Path_649" x="164.078" y="140.262" width="33.524" height="67.686" filterUnits="userSpaceOnUse">
      <feOffset dy="3" input="SourceAlpha"/>
      <feGaussianBlur stdDeviation="3" result="blur"/>
      <feFlood flood-opacity="0.161"/>
      <feComposite operator="in" in2="blur"/>
      <feComposite in="SourceGraphic"/>
    </filter>
    <linearGradient id="linear-gradient-9" x1="0.5" x2="0.5" y2="1" gradientUnits="objectBoundingBox">
      <stop offset="0" stop-color="#727a85"/>
      <stop offset="1" stop-color="#203c65"/>
    </linearGradient>
    <linearGradient id="linear-gradient-11" x1="0.571" y1="0.213" x2="0.174" y2="0.951" gradientUnits="objectBoundingBox">
      <stop offset="0" stop-color="#a7d15b"/>
      <stop offset="1" stop-color="#629800"/>
    </linearGradient>
    <linearGradient id="linear-gradient-12" x1="0.5" x2="0.5" y2="1" gradientUnits="objectBoundingBox">
      <stop offset="0" stop-color="#b0de5b"/>
      <stop offset="1" stop-color="#7eb220"/>
    </linearGradient>
    <linearGradient id="linear-gradient-13" x1="0.5" x2="0.5" y2="1" gradientUnits="objectBoundingBox">
      <stop offset="0" stop-color="#6fb8de"/>
      <stop offset="1" stop-color="#236c91"/>
    </linearGradient>
    <linearGradient id="linear-gradient-14" x1="0.5" x2="0.5" y2="1" gradientUnits="objectBoundingBox">
      <stop offset="0" stop-color="#85bdf4"/>
      <stop offset="1" stop-color="#144677"/>
    </linearGradient>
    <filter id="Path_649-2" x="208.112" y="145.27" width="19.095" height="54.783" filterUnits="userSpaceOnUse">
      <feOffset dy="1" input="SourceAlpha"/>
      <feGaussianBlur stdDeviation="1" result="blur-2"/>
      <feFlood flood-opacity="0.161"/>
      <feComposite operator="in" in2="blur-2"/>
      <feComposite in="SourceGraphic"/>
    </filter>
    <linearGradient id="linear-gradient-16" x1="0.297" y1="0.396" x2="0.5" y2="1" gradientUnits="objectBoundingBox">
      <stop offset="0" stop-color="#57a5f2"/>
      <stop offset="1" stop-color="#144677"/>
    </linearGradient>
    <linearGradient id="linear-gradient-17" x1="0.5" x2="0.5" y2="1" gradientUnits="objectBoundingBox">
      <stop offset="0" stop-color="#1aa3ff"/>
      <stop offset="1" stop-color="#075184"/>
    </linearGradient>
    <linearGradient id="linear-gradient-19" x1="0.5" x2="0.5" y2="1" gradientUnits="objectBoundingBox">
      <stop offset="0" stop-color="#f6efdf"/>
      <stop offset="1" stop-color="#e0cb92"/>
    </linearGradient>
    <filter id="Path_684" x="125.416" y="166.298" width="18.072" height="32.393" filterUnits="userSpaceOnUse">
      <feOffset dy="1" input="SourceAlpha"/>
      <feGaussianBlur stdDeviation="1" result="blur-3"/>
      <feFlood flood-opacity="0.161"/>
      <feComposite operator="in" in2="blur-3"/>
      <feComposite in="SourceGraphic"/>
    </filter>
    <linearGradient id="linear-gradient-20" x1="0.762" y1="1.027" x2="0.402" y2="0.063" gradientUnits="objectBoundingBox">
      <stop offset="0" stop-color="#190f17"/>
      <stop offset="1" stop-color="#b425ae"/>
    </linearGradient>
    <linearGradient id="linear-gradient-21" x1="0.5" x2="0.5" y2="1" gradientUnits="objectBoundingBox">
      <stop offset="0" stop-color="#ea1678"/>
      <stop offset="1" stop-color="#7e3850"/>
    </linearGradient>
    <linearGradient id="linear-gradient-22" x1="0.5" y1="0.96" x2="0.5" y2="0.063" gradientUnits="objectBoundingBox">
      <stop offset="0" stop-color="#e5d4a6"/>
      <stop offset="1" stop-color="#e0e0df"/>
    </linearGradient>
    <linearGradient id="linear-gradient-23" x1="0.5" x2="0.5" y2="1" gradientUnits="objectBoundingBox">
      <stop offset="0" stop-color="#d81cc7"/>
      <stop offset="1" stop-color="#530f4d"/>
    </linearGradient>
    <linearGradient id="linear-gradient-25" x1="0.5" y1="0.646" x2="0.5" gradientUnits="objectBoundingBox">
      <stop offset="0" stop-color="#a7dafa"/>
      <stop offset="1" stop-color="#d6efff" stop-opacity="0"/>
    </linearGradient>
    <linearGradient id="linear-gradient-26" x1="0.5" x2="0.5" y2="1" gradientUnits="objectBoundingBox">
      <stop offset="0" stop-color="#a7dafa"/>
      <stop offset="1" stop-color="#c6d4fb"/>
    </linearGradient>
    <linearGradient id="linear-gradient-27" x1="0.5" x2="0.417" y2="0.792" gradientUnits="objectBoundingBox">
      <stop offset="0" stop-color="#e2f3fd"/>
      <stop offset="1" stop-color="#fff" stop-opacity="0.02"/>
    </linearGradient>
    <linearGradient id="linear-gradient-31" x1="0.5" x2="0.5" y2="1" gradientUnits="objectBoundingBox">
      <stop offset="0" stop-color="#555"/>
      <stop offset="1" stop-color="#505050"/>
    </linearGradient>
    <linearGradient id="linear-gradient-32" x1="0.5" x2="0.5" y2="1" gradientUnits="objectBoundingBox">
      <stop offset="0" stop-color="#a3a3a3"/>
      <stop offset="1" stop-color="#313131"/>
    </linearGradient>
    <filter id="Path_728" x="241.284" y="144.305" width="30.233" height="32.927" filterUnits="userSpaceOnUse">
      <feOffset dy="3" input="SourceAlpha"/>
      <feGaussianBlur stdDeviation="3" result="blur-4"/>
      <feFlood flood-opacity="0.161"/>
      <feComposite operator="in" in2="blur-4"/>
      <feComposite in="SourceGraphic"/>
    </filter>
    <linearGradient id="linear-gradient-33" x1="0.762" y1="1.027" x2="0.402" y2="0.063" gradientUnits="objectBoundingBox">
      <stop offset="0" stop-color="#9f4300"/>
      <stop offset="1" stop-color="#f48300"/>
    </linearGradient>
    <filter id="Path_731" x="241.494" y="138.039" width="29.404" height="24.661" filterUnits="userSpaceOnUse">
      <feOffset dy="3" input="SourceAlpha"/>
      <feGaussianBlur stdDeviation="3" result="blur-5"/>
      <feFlood flood-opacity="0.161"/>
      <feComposite operator="in" in2="blur-5"/>
      <feComposite in="SourceGraphic"/>
    </filter>
    <linearGradient id="linear-gradient-34" x1="0.5" y1="1" x2="0.5" gradientUnits="objectBoundingBox">
      <stop offset="0" stop-color="#5a5a5a"/>
      <stop offset="1" stop-color="#4e4e4e"/>
    </linearGradient>
    <filter id="Path_734" x="241.145" y="142.228" width="29.967" height="20.563" filterUnits="userSpaceOnUse">
      <feOffset dy="3" input="SourceAlpha"/>
      <feGaussianBlur stdDeviation="3" result="blur-6"/>
      <feFlood flood-opacity="0.161"/>
      <feComposite operator="in" in2="blur-6"/>
      <feComposite in="SourceGraphic"/>
    </filter>
    <filter id="Path_725" x="250.496" y="125.985" width="15.531" height="30.521" filterUnits="userSpaceOnUse">
      <feOffset input="SourceAlpha"/>
      <feGaussianBlur stdDeviation="1" result="blur-7"/>
      <feFlood flood-opacity="0.173"/>
      <feComposite operator="in" in2="blur-7"/>
      <feComposite in="SourceGraphic"/>
    </filter>
    <filter id="Path_733" x="242.782" y="161.289" width="31.977" height="36.952" filterUnits="userSpaceOnUse">
      <feOffset dy="1" input="SourceAlpha"/>
      <feGaussianBlur stdDeviation="1" result="blur-8"/>
      <feFlood flood-opacity="0.161"/>
      <feComposite operator="in" in2="blur-8"/>
      <feComposite in="SourceGraphic"/>
    </filter>
    <linearGradient id="linear-gradient-35" x1="0.5" x2="0.5" y2="1" gradientUnits="objectBoundingBox">
      <stop offset="0" stop-color="#bf5b00"/>
      <stop offset="1" stop-color="#602e00"/>
    </linearGradient>
  </defs>
  <g id="Group_198" data-name="Group 198" transform="translate(0.586 -175.583)">
    <path id="Path_718" data-name="Path 718" d="M179.1,0c98.913,0,179.1,1.877,179.1,4.193S278.011,8.387,179.1,8.387,0,6.509,0,4.193,80.185,0,179.1,0Z" transform="translate(6 365)" opacity="0.354" fill="url(#linear-gradient)"/>
    <path id="Path_668" data-name="Path 668" d="M111.627,7.7c94.175.883,182.118-24.585,182.118-24.585V90.958c0,40.869-376.7,55.6-376.7,14.73v-126.1s22.594-12.5,54.189-6.252C8.829-19.232,60.207,7.219,111.627,7.7Z" transform="translate(82.368 204)" fill="url(#linear-gradient-2)"/>
    <g id="Group_183" data-name="Group 183" transform="translate(150.79 267)">
      <rect id="Rectangle_1439" data-name="Rectangle 1439" width="1" height="11" rx="0.5" transform="matrix(0.799, -0.602, 0.602, 0.799, 0, 19.586)" fill="#696969"/>
      <path id="Path_675" data-name="Path 675" d="M-1.059-.453C-.626-.453.286,1.562.286,1.562A11.374,11.374,0,0,0,1.82,3.389l.644-.6.58,1.123S2.3,5.319,1.391,5.319c-.288,0-.418-.747-.959-1.233a10.692,10.692,0,0,0-1.491-.994S-1.969-.453-1.059-.453Z" transform="translate(4.173 23.861)" fill="url(#linear-gradient-3)"/>
      <path id="Path_676" data-name="Path 676" d="M-2.3,2.628c.171-.349,2.1-.242,2.1-.242a8.99,8.99,0,0,1,1.114,3.1l-.85.869-.652-.746.253-.563-.717-.94.279-.829S-2.468,2.976-2.3,2.628Z" transform="translate(6.901 21.626)" fill="url(#linear-gradient-4)"/>
      <path id="Path_662" data-name="Path 662" d="M2675.982,1075.234c-1.172-.791-5.556,4.191-8.773,8.19-1,1.249-3.511,4-4.491,4.033l-3.807-5.126a20.306,20.306,0,0,1-1.2-1.724c-.2-.414-2.5,1.481-2.91,2.58s.37.585,1.136,1.726c1.646,2.456,5.565,7.988,7.216,7.906,2.187-.108,10.22-7.828,12.581-10.99S2677.154,1076.025,2675.982,1075.234Z" transform="translate(-2649.668 -1053.649)" fill="url(#linear-gradient-5)"/>
      <g id="Group_187" data-name="Group 187" transform="translate(13.411 0) rotate(8)">
        <path id="Path_655" data-name="Path 655" d="M4.932,0a6.486,6.486,0,0,1,6.7,6.251c0,2.537-.5,2.67-1.455,5.816-.267.115.643,3.088,0,4.287-.47.88-2.513,0-3.043,0-.669,0-.132-3.209-1.006-3.459-.851-.236-2.953.465-3.877-.745-.475-.619-.423-1.536-1.09-2.228C.61,9.365,0,10.449,0,9.406,0,5.953,1.233,0,4.932,0Z" transform="matrix(0.914, -0.407, 0.407, 0.914, 0.954, 5.167)" fill="url(#linear-gradient-6)"/>
        <path id="Path_656" data-name="Path 656" d="M2.881,3.186C5.8,2.625,9.727-1.387,12.454.5a7.751,7.751,0,0,1,3.182,6.275c-.129,1-.293,1.925-1,1.8S12.2,5.438,9.941,5.391,8.715,8.029,8.715,8.029s-.1.485-.534.185a4.952,4.952,0,0,0-1.7-1.437,3.262,3.262,0,0,0-1.863-.233c-.656.041-1.031.964-2.362.521S.6,6.308.22,5.538s-.194-2.17,0-2.143S-.04,3.746,2.881,3.186Z" transform="translate(0 0)" fill="#737373"/>
      </g>
      <path id="Path_651" data-name="Path 651" d="M9.447,11.178,13.47,41.991l-4.865.673L0,0Z" transform="matrix(0.899, 0.438, -0.438, 0.899, 22.812, 59.75)" fill="url(#linear-gradient-7)"/>
      <g transform="matrix(1, 0, 0, 1, -151.38, -91.42)" filter="url(#Path_649)">
        <path id="Path_649-3" data-name="Path 649" d="M-4.372.587H10.944S12.17-3.75,8.671,8.746s-4.195,40.8-4.195,40.8H-1.1s-1.722-14.061-2.3-26.78c-.363-8.051-.484-14.8-.527-18.942A11.385,11.385,0,0,0-4.372.587Z" transform="translate(177.45 146.4)" fill="url(#linear-gradient-8)"/>
      </g>
      <path id="Path_650" data-name="Path 650" d="M5.216,1.032C6.316.262,5.479.5,6.535-.55,7-.606,7.961.09,9.285.248a8.328,8.328,0,0,0,2.546-.324h.52V3.013a19.734,19.734,0,0,1-5.4.514c-3.823,0-6.84.337-6.84-.653,0-.625-.211-1.247.111-1.466A27.235,27.235,0,0,1,5.216,1.032Z" transform="translate(18.458 102.805)" fill="url(#linear-gradient-9)"/>
      <path id="Path_652" data-name="Path 652" d="M3.965,1.547c1.692-.49,1.4-.5,2.458-1.545.468-.056.613.776,1.937.934A8.328,8.328,0,0,0,10.907.612h.52l.212,3.629S0,3.615,0,2.991A2.741,2.741,0,0,1,.852,1.252C1.174,1.033,2.285,1.252,3.965,1.547Z" transform="translate(6.342 97.958) rotate(20)" fill="url(#linear-gradient-9)"/>
      <path id="Path_648" data-name="Path 648" d="M7.9-3.621C8.769-5.7,6.726-5.371,8.973-7.213s5.292-1.523,8.384,3.591.7,7.8,2.222,13.177A71.523,71.523,0,0,1,22.2,26.687c.118,1.713.555,2.3.32,3.2-.483,2.027-5.564,1.409-8.757,1.409s-8.839-.637-8.839-.637-.841.889-.566-2.266.752-3.8,1.668-10.354S6.188.455,7.9-3.621Z" transform="translate(15.491 24.947)" fill="url(#linear-gradient-11)"/>
      <path id="Path_654" data-name="Path 654" d="M8.394.366c2.731,0,7.744-.394,7.744-.394l.069.557s-4.827.489-7.751.489A60.847,60.847,0,0,1-.242.366l.076-.631S6.375.366,8.394.366Z" transform="translate(21.168 46.517)" fill="#c3eb79" opacity="0.716"/>
      <path id="Path_659" data-name="Path 659" d="M9.063.371c2.935,0,8.262-.425,8.262-.425l.059.564s-5.112.513-8.253.513A64.885,64.885,0,0,1,0,.371L.105-.219S6.893.371,9.063.371Z" transform="translate(20.249 50.084)" fill="#c3eb79" opacity="0.716"/>
      <path id="Path_657" data-name="Path 657" d="M8.47.379c2.731,0,7.189-.357,7.189-.357l.1.608s-4.3.4-7.228.4A47.11,47.11,0,0,1,.466.379L.534-.136S6.451.379,8.47.379Z" transform="translate(21.092 42.038)" fill="#c3eb79" opacity="0.54"/>
      <path id="Path_658" data-name="Path 658" d="M7.327.62C9.613.62,13.72.228,13.72.228L13.8.8s-3.972.477-6.419.477A44.972,44.972,0,0,1,0,.623L.094,0S5.636.62,7.327.62Z" transform="matrix(0.999, -0.035, 0.035, 0.999, 22.101, 37.564)" fill="#c3eb79" opacity="0.617"/>
      <path id="Path_674" data-name="Path 674" d="M6.3.545c2.149,0,6.01-.392,6.01-.392l.073.568S8.649,1.2,6.349,1.2A29.2,29.2,0,0,1,0,.538L.116,0S4.711.545,6.3.545Z" transform="matrix(0.999, -0.035, 0.035, 0.999, 22.519, 33.59)" fill="#c3eb79" opacity="0.473"/>
      <path id="Path_661" data-name="Path 661" d="M2.526.136c1.517,0,2.968-.3,2.968,0S4.264.688,2.747.688,0,.441,0,.136,1.009.136,2.526.136Z" transform="matrix(0.809, 0.588, -0.588, 0.809, 25.874, 56.629)" fill="#4783aa"/>
      <path id="Path_660" data-name="Path 660" d="M2662.683,1078.141c1.333-.791,2.878-2.386,7.305,3.941,2.33,2.547,4.35,10.445,4.35,13.7,1.268,3.75-9.092,21.619-9.092,21.619l-2.563-1.972,5.05-13.084s1.931-5.14,1.853-6.088a62.811,62.811,0,0,0-4.284-10.769C2664.046,1083.658,2661.351,1078.932,2662.683,1078.141Z" transform="translate(-2636.053 -1058.14)" fill="url(#linear-gradient-12)"/>
    </g>
    <g id="Group_189" data-name="Group 189" transform="translate(189.79 273.514)">
      <path id="Path_651-2" data-name="Path 651" d="M9.557,2.4l.437,44.736L5.75,46.828,2.426,26.177,0,0Z" transform="translate(19.639 47.856) rotate(7)" fill="#ded09b"/>
      <path id="Path_694" data-name="Path 694" d="M1.33,1.753S2.99,1.418,5.915,3.12A37.461,37.461,0,0,1,12.451,8.7l-1.668,8.559L.749,15.681Z" transform="translate(18.089 47.766)" fill="url(#linear-gradient-13)"/>
      <path id="Path_695" data-name="Path 695" d="M.893,2.3c.683-.381,8.547.749,9.385,1.186s.966-2.014.661-2.624S.8-.95.433-.675.21,2.679.893,2.3Z" transform="translate(18.156 63.757)" fill="#69aed1"/>
      <path id="Path_688" data-name="Path 688" d="M3.484-.5c1.25-.666.8-1.706,1.719-2.693.359-.046,1.163,1.3,1.163,1.3s2.467.446,3.939-.6,1.106,5.014,1.106,5.014a21.353,21.353,0,0,1-5.434.615c-3.319,0-6.162-.176-6.162-.176s-.572-1.779,0-2.525S2.234.164,3.484-.5Z" transform="translate(14.119 96.681)" fill="url(#linear-gradient-14)"/>
      <g id="Group_187-2" data-name="Group 187" transform="translate(21.66 -6.514) rotate(25)">
        <path id="Path_655-2" data-name="Path 655" d="M4.984,0C8.521.005,11.392,3.159,11.4,7.044a21.547,21.547,0,0,1-.807,7.293c-.255.129,1.808,2.093,1.195,3.441-.448.989-6.628,2.063-7.134,2.062-.64,0,3.209-5.389,2.373-5.672-.814-.267-3.7.862-4.588-.5-.456-.7-.288-2.4-.927-3.177C.984,9.864,0,11.212,0,10.038c0-1.9,1.112-1.229.331-6.853A5.091,5.091,0,0,1,4.984,0Z" transform="matrix(0.914, -0.407, 0.407, 0.914, 0.843, 6.06)" fill="url(#linear-gradient-6)"/>
        <path id="Union_3" data-name="Union 3" d="M7.776,17.528c-.007-.223,1.5-1.255,1.04-1.732-.194-.185-2.349.146-1.834-.45.117-.119,3.226-1.1,3.3-1.541a5.937,5.937,0,0,0-.6-3.04c-.284-.348-3.322-4.062-3.91-4.017C5.164,6.8,3.462,9.194,2.187,8.425S-.088,6.889.006,5.846.2,3.107,1.46,2.19c.488-.357.8.006,1.146.37.547.572,1.187,1.143,2.761-1.085A2.875,2.875,0,0,1,6.611,1.4,1.967,1.967,0,0,0,8.469.835c.807-.749,3.452-1.549,4.855.287s2.231,7.835,2.2,8.573c.176.831.3,2.014.3,2.014s-1.112.355-1.357-.35a14.009,14.009,0,0,0-1.837-3.676c-.435-.563-.688-.872-1.4-.922-1.855-.127-.974,2.327-.711,2.973a.521.521,0,0,1,.021.051c.027.066.044.1.044.1l-.011.011c.031.125.062.3.1.56.16,1.036,1.422,4.406,1.461,5.683.07,2.309-1.132,3.165-2.593,3.118a6.246,6.246,0,0,0-.695.02c-.153.011-.284.023-.4.023C7.943,19.3,7.822,19.068,7.776,17.528Z" transform="translate(0)" fill="#be7f4e"/>
      </g>
      <g transform="matrix(1, 0, 0, 1, -190.38, -97.93)" filter="url(#Path_649-2)">
        <path id="Path_649-4" data-name="Path 649" d="M-3.92-2.243,8.986.423S10.05-3.662,7.012,8.108,3.369,46.54,3.369,46.54H-1.469S-2.964,33.3-3.463,21.314C-3.778,13.73-3.883,7.377-3.92,3.472-3.938,1.623-3.92-2.243-3.92-2.243Z" transform="translate(215.04 149.51)" fill="#ded09b"/>
      </g>
      <path id="Path_650-2" data-name="Path 650" d="M3.484-.5c1.25-.666.8-1.706,1.719-2.693.359-.046,1.163,1.3,1.163,1.3s2.467.446,3.939-.6,1.106,5.014,1.106,5.014a21.353,21.353,0,0,1-5.434.615c-3.319,0-6.162-.176-6.162-.176s-.572-1.779,0-2.525S2.234.164,3.484-.5Z" transform="translate(17.592 96.681)" fill="url(#linear-gradient-16)"/>
      <path id="Path_648-2" data-name="Path 648" d="M4.228,4.509,10.489,0s1.753,1.822,2.949,6.275,1.1,5.241,2.036,12.458,1.135,12.632,1.439,16.446c.129,1.614-.242,8.047-.242,8.047s-5.636-5.15-8.911-6.234A15.628,15.628,0,0,0,.9,36.579s-1.274.473-.787-8.991c.227-4.4-.29-10.99.063-15.148C.529,8.26,4.228,4.509,4.228,4.509Z" transform="matrix(0.996, 0.087, -0.087, 0.996, 20.284, 13.787)" fill="url(#linear-gradient-17)"/>
      <path id="Path_660-2" data-name="Path 660" d="M3.824,1.1C4.576-1.171,8.37.109,8.533,4.626a17.888,17.888,0,0,1-2.381,8.707L0,9.622S3.071,3.368,3.824,1.1Z" transform="translate(23.157 16.434) rotate(32)" fill="#61a4d6"/>
      <path id="Path_690" data-name="Path 690" d="M4.412.259C5.565-.435,7.665.327,8.464,1.81S9.191,4.4,8.107,6.181,5.889,9.758,5.889,9.758L0,5.6S3.26.955,4.412.259Z" transform="matrix(-0.899, -0.438, 0.438, -0.899, 19.59, 35.94)" fill="#ded09b"/>
      <path id="Path_697" data-name="Path 697" d="M.891,0,7.348.228a.988.988,0,0,1,.955.92l.033.888a.831.831,0,0,1-.89.855L.988,2.664a.988.988,0,0,1-.955-.92L0,.856A.831.831,0,0,1,.891,0Z" transform="translate(19.897 23.097) rotate(59)" fill="#a5c8e3"/>
      <path id="Path_692" data-name="Path 692" d="M.6,1.582A9.6,9.6,0,0,1,6,3.114,37.06,37.06,0,0,1,12.43,8.689l-1.668,8.559L.729,15.672Z" transform="translate(19.846 48.717)" fill="url(#linear-gradient-13)"/>
      <path id="Path_719" data-name="Path 719" d="M2.526.136c1.517,0,2.968-.3,2.968,0S4.264.688,2.747.688,0,.441,0,.136,1.009.136,2.526.136Z" transform="matrix(0.809, 0.588, -0.588, 0.809, 21.874, 50.115)" fill="#519bcb"/>
      <path id="Path_693" data-name="Path 693" d="M.893,2.3c.683-.381,8.547.749,9.385,1.186s.966-2.014.661-2.624S.8-.95.433-.675.21,2.679.893,2.3Z" transform="translate(19.893 64.699)" fill="#69aed1"/>
    </g>
    <g id="Group_188" data-name="Group 188" transform="translate(0 -0.451)">
      <path id="Path_677" data-name="Path 677" d="M5.163,0c3.922,0,6.843,1.758,6.843,5.419,0,2.69-1.262,3.893-2.277,7.229-.284.122,1.619,4.209,1.619,4.209s-4.729-.65-5.29-.65c-.71,0,.538-3.793-.388-4.058-.9-.25-2.637,1.314-3.617.031-.5-.656-.321-2.016-1.028-2.75C.443,8.842.031,9.615,0,8.762s1.152-1.09,1.425-2.6S1.2,3.776,1.9,2.293A4.479,4.479,0,0,1,5.163,0Z" transform="matrix(0.993, -0.122, 0.122, 0.993, 125.533, 291.679)" fill="url(#linear-gradient-19)"/>
      <path id="Path_678" data-name="Path 678" d="M7.958.093c3.3.715,4.923,5.148,4.923,5.148a12.836,12.836,0,0,1,.192,3.713c-.235,1.669-.757,3.029-1.132,2.962-.749-.133-1.927-7.445-4.327-7.5s-1.3,2.8-1.3,2.8-.1.514-.567.2a5.251,5.251,0,0,0-1.8-1.524,3.459,3.459,0,0,0-1.975-.247c-.7.043-.936,1.462-1.864-.611S4.661-.622,7.958.093Z" transform="translate(129.697 286.575) rotate(22)" fill="#737373"/>
      <path id="Path_679" data-name="Path 679" d="M3.582.782c1.672,1.043.3,5.711.3,7.467,0,1.072-2.468-.2-3.835-1-.4-.238,2.079-3.377,1.319-4.716S.125,3.084.125,1.327,1.91-.261,3.582.782Z" transform="translate(136.53 288.723) rotate(-31)" fill="#737373"/>
      <path id="Path_683" data-name="Path 683" d="M-3.081,0H5.147s-3.91,6.562-1.73,10.954S5.055,27.049,5.055,27.049l-1.639-.37L-1.967,8.056Z" transform="translate(135.742 344.332)" fill="#e5d4a6"/>
      <g transform="matrix(1, 0, 0, 1, -0.59, 176.03)" filter="url(#Path_684)">
        <path id="Path_684-2" data-name="Path 684" d="M-2.123,0H9.535S1.4,4.106,1.856,11.493a47.583,47.583,0,0,1-1.9,14.9H-2.431s.359-8.066,0-14.9A65.351,65.351,0,0,1-2.123,0Z" transform="translate(130.95 168.3)" fill="#e5d4a6"/>
      </g>
      <path id="Path_680" data-name="Path 680" d="M20.074-.537c-1.566-2.794-2.732-6.335-7.133-4.089-1.717.876-1.33,1.426-2.5,2.592C9.206-.823,8.4-.625,6.929,1.252c-2.419,3.077,1.94,4.878,1.94,4.878S7.267,12.872,6.1,19.138c-.766,4.093-2.341,8.085-2.467,9.91s-1.111,2.383-.862,3.338c.512,2.15,7.6,1.212,10.989,1.212H27s-4.051-5.483-4.674-9.939C21.759,19.591,20.724.623,20.074-.537Z" transform="translate(121.5 310.798)" fill="url(#linear-gradient-20)"/>
      <path id="Subtraction_1" data-name="Subtraction 1" d="M2.954,5.208A2.8,2.8,0,0,1,0,2.6,2.8,2.8,0,0,1,2.954,0,2.8,2.8,0,0,1,5.909,2.6,2.8,2.8,0,0,1,2.954,5.208Zm0-4.464A2,2,0,0,0,.844,2.6a2,2,0,0,0,2.11,1.86A2,2,0,0,0,5.065,2.6,2,2,0,0,0,2.954.744Z" transform="translate(130.641 336.971)" fill="#8a3454"/>
      <path id="Path_685" data-name="Path 685" d="M1.561.331H12.023s.93,8.4.7,9.192-10.777,1-12.105,0S.772,7.983,1.561.331Z" transform="translate(127.404 339.111)" fill="url(#linear-gradient-21)"/>
      <path id="Path_682" data-name="Path 682" d="M2.32,0C5.406.013,5.254,9.186,4.591,16.974c-.408,4.8-4.16,9.036-4.16,9.036s.858,3.421.163,4.562a1.757,1.757,0,0,1-2.943,0c-.644-.984.369-3.937.369-3.937A18.568,18.568,0,0,0,0,16.83C-.616,9.479-.781-.013,2.32,0Z" transform="translate(134.467 307.509)" fill="url(#linear-gradient-22)"/>
      <path id="Path_686" data-name="Path 686" d="M16.816,1.988c1.388-.873,1.107.644.921,1.361s-.274.744-.921,1.222c0,0,.073-1.851-.971-1.837-1.113.015-2.007,1.923-3.406,2.075C9.247,5.154,8.687,3.7,8.687,3.7a53.458,53.458,0,0,1,6.741-2.166C15.568,1.949,16.5,1.96,16.816,1.988Z" transform="translate(112.694 368.784)" fill="url(#linear-gradient-23)"/>
      <path id="Path_687" data-name="Path 687" d="M15.547,1.928c1.171-.758.934.559.777,1.182s-.231.646-.777,1.061c0,0,.062-1.607-.82-1.6-.939.013-1.693,1.67-2.874,1.8-2.693.3-3.166-.96-3.166-.96a44.221,44.221,0,0,1,5.688-1.881C14.494,1.894,15.282,1.9,15.547,1.928Z" transform="translate(124.735 368.784)" fill="url(#linear-gradient-23)"/>
    </g>
    <path id="Path_689" data-name="Path 689" d="M3052.943,1135.914l-7.411,3.983,1.226-3.983,5.475-1.232Z" transform="translate(-2914 -831)" fill="none"/>
    <g id="Group_190" data-name="Group 190">
      <rect id="Rectangle_1437" data-name="Rectangle 1437" width="3" height="39.385" transform="translate(304 195)" fill="url(#linear-gradient-25)"/>
      <path id="Path_669" data-name="Path 669" d="M18,0c4.851,0,11.753,3.155,15.143,7.582A15.955,15.955,0,0,1,36,17.329H0A14.994,14.994,0,0,1,2.792,6.512C5.823,2.685,13.357,0,18,0Z" transform="translate(288 232.81)" fill="url(#linear-gradient-26)"/>
      <path id="Path_670" data-name="Path 670" d="M0,0H36l4.754,30.653H-5.062Z" transform="translate(288 250)" fill="url(#linear-gradient-27)"/>
      <path id="Path_671" data-name="Path 671" d="M7.861,3a5.452,5.452,0,0,1-.689,3.374c-.449.763-2.159,1.343-3.242,1.343A4.089,4.089,0,0,1,.719,6.03,6.448,6.448,0,0,1,0,3Z" transform="translate(302 247.142)" fill="#fff"/>
    </g>
    <g id="Group_191" data-name="Group 191" transform="translate(-223)">
      <rect id="Rectangle_1437-2" data-name="Rectangle 1437" width="3" height="39.385" transform="translate(304 195)" fill="url(#linear-gradient-25)"/>
      <path id="Path_669-2" data-name="Path 669" d="M18,0c4.851,0,11.753,3.155,15.143,7.582A15.955,15.955,0,0,1,36,17.329H0A14.994,14.994,0,0,1,2.792,6.512C5.823,2.685,13.357,0,18,0Z" transform="translate(288 232.81)" fill="url(#linear-gradient-26)"/>
      <path id="Path_670-2" data-name="Path 670" d="M0,0H36l4.754,30.653H-5.062Z" transform="translate(288 250)" fill="url(#linear-gradient-27)"/>
      <path id="Path_671-2" data-name="Path 671" d="M7.861,3a5.452,5.452,0,0,1-.689,3.374c-.449.763-2.159,1.343-3.242,1.343A4.089,4.089,0,0,1,.719,6.03,6.448,6.448,0,0,1,0,3Z" transform="translate(302 247.142)" fill="#fff"/>
    </g>
    <g id="Group_174" data-name="Group 174" transform="translate(-33 -135)">
      <g id="Rectangle_1408" data-name="Rectangle 1408" transform="translate(167.757 365) rotate(-45)" fill="#fff" stroke="#eceef5" stroke-width="1">
        <rect width="5" height="5" rx="2" stroke="none"/>
        <rect x="0.5" y="0.5" width="4" height="4" rx="1.5" fill="none"/>
      </g>
      <path id="Path_552" data-name="Path 552" d="M1,0H51a1,1,0,0,1,1,1V30a1,1,0,0,1-1,1H1a1,1,0,0,1-1-1V1A1,1,0,0,1,1,0Z" transform="translate(146 365)" fill="#eceef5"/>
      <rect id="Rectangle_1410" data-name="Rectangle 1410" width="48" height="27" rx="1" transform="translate(148 367)" fill="#fff"/>
      <g id="Group_173" data-name="Group 173" transform="translate(0 3)">
        <rect id="Rectangle_1411" data-name="Rectangle 1411" width="3.265" height="1.306" rx="0.653" transform="translate(167 378)" fill="#eceef5"/>
        <rect id="Rectangle_1416" data-name="Rectangle 1416" width="3.65" height="1.306" rx="0.653" transform="translate(172.223 378)" fill="#eceef5"/>
        <rect id="Rectangle_1412" data-name="Rectangle 1412" width="3.265" height="1.306" rx="0.653" transform="translate(167 379.959)" fill="#eceef5"/>
        <rect id="Rectangle_1415" data-name="Rectangle 1415" width="3.65" height="1.306" rx="0.653" transform="translate(172.223 379.959)" fill="#eceef5"/>
        <rect id="Rectangle_1413" data-name="Rectangle 1413" width="3.265" height="1.306" rx="0.653" transform="translate(167 381.917)" fill="#eceef5"/>
        <rect id="Rectangle_1414" data-name="Rectangle 1414" width="3.65" height="1.306" rx="0.653" transform="translate(172.223 381.917)" fill="#eceef5"/>
      </g>
      <rect id="Rectangle_1417" data-name="Rectangle 1417" width="10" height="13" transform="translate(153 373)" fill="#eceef5"/>
      <rect id="Rectangle_1418" data-name="Rectangle 1418" width="9" height="6" transform="translate(167 373)" fill="#eceef5"/>
      <rect id="Rectangle_1440" data-name="Rectangle 1440" width="9" height="6" transform="translate(181 373)" fill="#eceef5"/>
      <rect id="Rectangle_1441" data-name="Rectangle 1441" width="9" height="6" transform="translate(181 380)" fill="#eceef5"/>
    </g>
    <g id="Group_192" data-name="Group 192" transform="translate(-5)">
      <rect id="Rectangle_1442" data-name="Rectangle 1442" width="25" height="31" transform="translate(182 230)" fill="#eceef5"/>
      <rect id="Rectangle_1445" data-name="Rectangle 1445" width="19.737" height="27" transform="translate(184.632 232)" fill="#fff"/>
    </g>
    <g id="Group_193" data-name="Group 193" transform="translate(-5)">
      <rect id="Rectangle_1443" data-name="Rectangle 1443" width="25" height="31" transform="translate(219 230)" fill="#eceef5"/>
      <rect id="Rectangle_1446" data-name="Rectangle 1446" width="19.737" height="27" transform="translate(221.632 232)" fill="#fff"/>
    </g>
    <g id="Group_194" data-name="Group 194" transform="translate(-4)">
      <rect id="Rectangle_1444" data-name="Rectangle 1444" width="25" height="31" transform="translate(255 230)" fill="#eceef5"/>
      <rect id="Rectangle_1447" data-name="Rectangle 1447" width="19.737" height="27" transform="translate(257.632 232)" fill="#fff"/>
      <g id="dance" transform="translate(261 239.253)">
        <path id="Path_705" data-name="Path 705" d="M330.072,1.036a1.036,1.036,0,1,0-1.036,1.036A1.036,1.036,0,0,0,330.072,1.036Zm-1.036.622a.622.622,0,1,1,.622-.622A.622.622,0,0,1,329.036,1.658Zm0,0" transform="translate(-319.505)" fill="#e0e0e0"/>
        <path id="Path_706" data-name="Path 706" d="M268.972,9.865h-3.729V8.622a.622.622,0,1,0-1.243,0v1.865a.622.622,0,0,0,.622.622h.622v.967l-.7.943a.625.625,0,0,0-.124.373v2.275a.207.207,0,0,0,.207.207h.829a.207.207,0,0,0,.207-.207V13.6a.207.207,0,0,1,.055-.141l.45-.489h.531v2.694a.207.207,0,0,0,.207.207h.829a.207.207,0,0,0,.207-.207V11.108h.414v.829a.622.622,0,1,0,1.243,0v-1.45A.622.622,0,0,0,268.972,9.865Zm.207,2.072a.207.207,0,1,1-.414,0V10.9a.207.207,0,0,0-.207-.207h-.829a.207.207,0,0,0-.207.207v4.558h-.414V12.765a.207.207,0,0,0-.207-.207h-.829a.207.207,0,0,0-.152.067l-.512.556a.619.619,0,0,0-.164.421v1.856h-.414V13.39a.208.208,0,0,1,.041-.124l.746-1a.207.207,0,0,0,.041-.124V10.9a.207.207,0,0,0-.207-.207h-.829a.207.207,0,0,1-.207-.207V8.622a.207.207,0,1,1,.414,0v1.45a.207.207,0,0,0,.207.207h3.936a.207.207,0,0,1,.207.207Zm0,0" transform="translate(-257.163 -7.793)" fill="#e0e0e0"/>
        <path id="Path_707" data-name="Path 707" d="M106.072,153.036a1.036,1.036,0,1,0-1.036,1.036A1.036,1.036,0,0,0,106.072,153.036Zm-1.036.622a.622.622,0,1,1,.622-.622A.622.622,0,0,1,105.036,153.658Zm0,0" transform="translate(-101.307 -148.063)" fill="#e0e0e0"/>
        <path id="Path_708" data-name="Path 708" d="M37.125,160.094a.623.623,0,0,0-.775.6v1.243H33.036A1.037,1.037,0,0,0,32,162.974v1.036a.622.622,0,0,0,.622.622h1.036v.615a.206.206,0,0,0,.008.057l.39,1.373-.785,1.374a.207.207,0,0,0,.18.311h.829a.207.207,0,0,0,.18-.1l.829-1.45a.207.207,0,0,0,.019-.16l-.339-1.187h.4l.352,1.057-.2,1.611a.207.207,0,0,0,.206.233h.829a.207.207,0,0,0,.205-.182l.207-1.658a.2.2,0,0,0-.006-.08l-.614-2.252v-1.008h.622a.622.622,0,0,0,.622-.622v-1.842A.635.635,0,0,0,37.125,160.094Zm.054,2.466a.207.207,0,0,1-.207.207h-.829a.207.207,0,0,0-.207.207v1.243a.207.207,0,0,0,.007.055l.611,2.239-.179,1.436h-.411l.178-1.425a.2.2,0,0,0-.009-.091l-.414-1.243a.207.207,0,0,0-.2-.142h-.829a.207.207,0,0,0-.2.264l.39,1.368-.726,1.269h-.352l.651-1.14a.207.207,0,0,0,.02-.159l-.406-1.43v-.586a.622.622,0,0,0,0-1.243v-.414a.207.207,0,0,0-.207-.207h-.622a.414.414,0,0,0-.414.414v.414a.207.207,0,0,0,.207.207h1.036a.207.207,0,0,1,.207.207.2.2,0,0,1-.064.148.2.2,0,0,1-.144.059h-1.45a.207.207,0,0,1-.207-.207v-1.036a.622.622,0,0,1,.622-.622h3.522a.207.207,0,0,0,.207-.207V160.7a.2.2,0,0,1,.063-.148.2.2,0,0,1,.2-.053.225.225,0,0,1,.156.223Zm-3.522.829h-.414v-.207h.414Zm0,0" transform="translate(-31.171 -155.93)" fill="#e0e0e0"/>
        <path id="Path_709" data-name="Path 709" d="M1.465,3.185a.207.207,0,0,0,.385,0l.381-.953.953-.381a.207.207,0,0,0,0-.385l-.953-.382L1.85.131a.207.207,0,0,0-.385,0l-.381.953-.953.381a.207.207,0,0,0,0,.385l.953.381ZM1.32,1.436a.208.208,0,0,0,.116-.116L1.657.765l.222.555a.208.208,0,0,0,.116.116l.555.222-.555.222A.208.208,0,0,0,1.879,2l-.222.555L1.436,2a.208.208,0,0,0-.116-.116L.765,1.658Zm0,0" transform="translate(0 0)" fill="#e0e0e0"/>
        <path id="Path_710" data-name="Path 710" d="M291.192,353.465l-.953-.381-.381-.953a.207.207,0,0,0-.385,0l-.381.953-.953.381a.207.207,0,0,0,0,.385l.953.381.381.953a.207.207,0,0,0,.385,0l.381-.953.953-.381a.207.207,0,0,0,0-.385Zm-1.19.414a.208.208,0,0,0-.116.116l-.222.555-.222-.555a.208.208,0,0,0-.116-.116l-.555-.222.555-.222a.208.208,0,0,0,.116-.116l.222-.555.222.555a.208.208,0,0,0,.116.116l.555.222Zm0,0" transform="translate(-280.549 -342.883)" fill="#e0e0e0"/>
        <path id="Path_711" data-name="Path 711" d="M170.171,58.964a.207.207,0,0,1-.146-.061l-.586-.586a.207.207,0,0,1,0-.293l.586-.586a.207.207,0,0,1,.293,0l.586.586a.207.207,0,0,1,0,.293l-.586.586A.207.207,0,0,1,170.171,58.964Zm-.293-.793.293.293.293-.293-.293-.293Zm0,0" transform="translate(-164.991 -55.892)" fill="#e0e0e0"/>
        <path id="Path_712" data-name="Path 712" d="M418.171,330.964a.207.207,0,0,1-.147-.061l-.586-.586a.207.207,0,0,1,0-.293l.586-.586a.207.207,0,0,1,.293,0l.586.586a.207.207,0,0,1,0,.293l-.586.586A.207.207,0,0,1,418.171,330.964Zm-.293-.793.293.293.293-.293-.293-.293Zm0,0" transform="translate(-406.569 -320.847)" fill="#e0e0e0"/>
      </g>
    </g>
    <g id="Group_195" data-name="Group 195" transform="translate(181.137 240.806)">
      <path id="Path_702" data-name="Path 702" d="M3436.307,1032.93c-1.022-.3-1.5.034-2.467-1.278s.414-1.854-.943-3.413-1.886-4.172-2.915-4.573a4.845,4.845,0,0,0-4.481,0c-2.341,1-1.554,3.038-2.27,5.221s.614,2.257.67,4.044a2.813,2.813,0,0,1-1.025,2.486l8.22.1s5.431,5.993,4.661,4.791c-.843-1.316,2.02-2.746,1.418-2.987C3436.073,1036.874,3437.329,1033.233,3436.307,1032.93Z" transform="translate(-3420.496 -1023.119)" fill="#d1d1d1"/>
      <path id="Path_701" data-name="Path 701" d="M3426.216,1064.585a45.205,45.205,0,0,1-4.59,2.229c-1.707.617-1.479,2.716-1.479,2.716v3.057h17.391a25.491,25.491,0,0,0-.929-3.057c-.492-1.2-.275-1.078-1.041-1.757s-1.106-.49-2.022-.959-1.735-1.32-3.1-2.047S3428.527,1063.464,3426.216,1064.585Z" transform="translate(-3420.137 -1054.431)" fill="#eceef5"/>
      <path id="Union_4" data-name="Union 4" d="M2.225,1.006C1.1,2.136.336,4.444.01,4.545a1.814,1.814,0,0,1,.764.5c.2.25.44,2.738.691,3.744A.316.316,0,0,1,1.3,8.765a.329.329,0,0,0-.3.021A1.285,1.285,0,0,0,.672,9.869c.2.986.277,1.073.631.942s.162-.51.838-.635l.01,0c.23.671.639.628.639.628a3.435,3.435,0,0,1,1.354-.724,15.533,15.533,0,0,1,2.043,0,14.811,14.811,0,0,0-.2-2.069A3.638,3.638,0,0,0,4.438,6.051a1.84,1.84,0,0,0-.527-.237h.047c.011-.652,0-1.059,0-1.059A1.477,1.477,0,0,0,5,3.867a8.856,8.856,0,0,0,.452-2.328C5.6.356,5.2.055,4.517.023,4.32.013,4.151,0,3.994,0,3.481,0,3.087.141,2.225,1.006Zm.052,5.071a1.184,1.184,0,0,0-.119.109A.88.88,0,0,1,2.278,6.077Z" transform="translate(10.368 14.946) rotate(180)" fill="#fff"/>
    </g>
    <g id="Group_197" data-name="Group 197" transform="translate(-9 7.092)">
      <path id="Path_722" data-name="Path 722" d="M3544.907,1049.172c-1.021,1.026.788,2.536.852,3.887s-1.148,2.591-.677,2.826,1.016-.166,1.24.163-.07.653-.07,1.1.806.679.806.679-.424.456-.228.825.669.353.786.789a6.183,6.183,0,0,0,.458,1.066c.125.277,1.48-.134,3.2-.992.413-.2.7,4.716,1.306,4.273l5.067-2.519-3.123-10.213-4.679-2.1S3545.928,1048.146,3544.907,1049.172Z" transform="translate(-2825.122 -1758.45) rotate(17)" fill="#ece4cc"/>
      <path id="Path_721" data-name="Path 721" d="M3557.225,1049.98s-.508,2.607,2.422,5.288,6.426,1.168,7.772,5.153-2.94,3.732-2.94,6.419,1.782,1.032,2.441,2.676,1.139,4.026-.564,3.962-3.052-4.162-6.248-4.217-3.431-1.119-3.945-3,2.127-2.445,1.063-4.59-5.969-.508-5.32-3.991a25.005,25.005,0,0,0,0-6.218,9.034,9.034,0,0,1-3.615.34,1.864,1.864,0,0,1-1.225-1.82l4.84.126Z" transform="translate(-2825.122 -1758.45) rotate(17)" fill="#67513d"/>
      <path id="Path_735" data-name="Path 735" d="M2669.059,1067.772c.8-.648-.489-4.269,1.439-.986s2.782,7.274,3.481,10.353c.516,2.272-5.651,11.714-9.094,16.763-.389.57-.74,1.081-1.2,1.751-.254.368-.993,1.512-.993,1.512s.442,1.139.1,1.236-.619-1.05-1.566-.816-.9,1.328-1.188,2.357c-.533.178-1.261-.9-.639-2.228a3.687,3.687,0,0,1,1.468-1.38l2.082-4.188,7.73-14.674c-.055-.674-2.167-4.809-3.27-8.175S2668.259,1068.421,2669.059,1067.772Z" transform="translate(-2009.805 -1460.964) rotate(16)" fill="#ece4cc"/>
      <path id="Path_726" data-name="Path 726" d="M1.988,1.809s1-.391,3.927,1.311A37.461,37.461,0,0,1,12.451,8.7l-1.668,8.559L.749,15.681Z" transform="translate(256.878 317.1)" fill="url(#linear-gradient-31)"/>
      <path id="Path_727" data-name="Path 727" d="M.893,2.3c.683-.381,8.547.749,9.385,1.186s.966-2.014.661-2.624S.8-.95.433-.675.21,2.679.893,2.3Z" transform="translate(256.946 333.092)" fill="#7b7b7b"/>
      <g transform="matrix(1, 0, 0, 1, 8.41, 168.49)" filter="url(#Path_728)">
        <path id="Path_728-2" data-name="Path 728" d="M.063.745l11.626.384s1.541,6.916-.287,9.135a11.027,11.027,0,0,0-2.084,5.408H.729Z" transform="translate(250.22 149.56)" fill="url(#linear-gradient-32)"/>
      </g>
      <path id="Path_729" data-name="Path 729" d="M2.526.136c1.517,0,2.968-.3,2.968,0S4.264.688,2.747.688,0,.441,0,.136,1.009.136,2.526.136Z" transform="matrix(0.809, 0.588, -0.588, 0.809, 260.663, 319.449)" fill="#519bcb"/>
      <path id="Path_730" data-name="Path 730" d="M.8,2.3c.586-.381,7.329.749,8.048,1.186S9.676,1.47,9.414.86.719-.95.4-.675.214,2.679.8,2.3Z" transform="translate(258.682 333.034)" fill="#8b8b8b"/>
      <path id="Path_720" data-name="Path 720" d="M3544.55,1050.21a5.732,5.732,0,0,1,5.046-6.449c5.68-1.009,6.042,4.667,6.042,4.667l6.285,1.782Z" transform="translate(-2825.122 -1758.45) rotate(17)" fill="#d16a00"/>
      <path id="Path_723" data-name="Path 723" d="M4,0C6.209,0,8.507,4.274,8.507,4.274S6.209,8,4,8A4,4,0,0,1,4,0Z" transform="translate(249 286)" fill="#f0b4e5"/>
      <path id="Path_724" data-name="Path 724" d="M20.074-.537c-1.566-2.794-2.732-6.335-7.133-4.089-1.717.876-1.33,1.426-2.5,2.592a9.019,9.019,0,0,0-2.9,4.692A3.932,3.932,0,0,0,8.869,6.129a19.56,19.56,0,0,1,.5,4.17c0,2.149.247,1.482.247,1.482s2,.16,6.45.113c3.993-.039,4.7,2.268,4.387,0C19.89,7.828,20.724.623,20.074-.537Z" transform="translate(249.5 300.798)" fill="url(#linear-gradient-33)"/>
      <g transform="matrix(1, 0, 0, 1, 8.41, 168.49)" filter="url(#Path_731)">
        <path id="Path_731-2" data-name="Path 731" d="M8.91-3.728c0-.4.175-6.34.175-6.34s2.181-.009,6.453,0c3.654.145,4.329.792,4.329.792l.447,5.865Z" transform="translate(241.58 154.11)" fill="#ece4cc"/>
      </g>
      <g transform="matrix(1, 0, 0, 1, 8.41, 168.49)" filter="url(#Path_734)">
        <path id="Path_734-2" data-name="Path 734" d="M-.076,3.206l11.967.331V1.175L.006.974Z" transform="translate(250.22 147.25)" fill="url(#linear-gradient-34)"/>
      </g>
      <g transform="matrix(1, 0, 0, 1, 8.41, 168.49)" filter="url(#Path_725)">
        <path id="Path_725-2" data-name="Path 725" d="M2662.952,1077.1c.8-.648,2.3-.5,4.23,2.779s2.782,7.274,3.481,10.353-7.711,11.082-7.711,11.082l-1.779-1.378s6.245-8.708,6.191-9.371-2.167-4.809-3.27-8.175S2662.152,1077.751,2662.952,1077.1Z" transform="translate(-2407.68 -947.81)" fill="#ece4cc"/>
      </g>
      <path id="Path_732" data-name="Path 732" d="M-3.081,0l8.12.725L-.292,11.2v7.268a77.772,77.772,0,0,1-.74,9.174H-3.667l-.344-17.552Z" transform="translate(260.742 335.333)" fill="#ece4cc"/>
      <g transform="matrix(1, 0, 0, 1, 8.41, 168.49)" filter="url(#Path_733)">
        <path id="Path_733-2" data-name="Path 733" d="M2.051-5.768,8.53-.607S.554,6.5.411,8.678-1.78,22.708-1.78,22.708l-2.189-.049L-4.307,6.242Z" transform="matrix(0.85, -0.53, 0.53, 0.85, 252.49, 172.7)" fill="#ece4cc"/>
      </g>
      <path id="Path_738" data-name="Path 738" d="M2.743-1.271c.832-.447,1.209-1.237,1.819-1.9.239-.031,0,.94,0,.94l2,.269s.729-.958,1.022-.488A7.032,7.032,0,0,1,7.734-.08V.758s-1.9.255-3.9.3S-.27.94-.27.94-1.105-.279-.724-.781,1.911-.824,2.743-1.271Z" transform="translate(252.367 364.093)" fill="url(#linear-gradient-35)"/>
      <path id="Path_739" data-name="Path 739" d="M2.743-1.271c.832-.447,1.209-1.237,1.819-1.9.239-.031,0,.94,0,.94l2,.269s.729-.958,1.022-.488A7.032,7.032,0,0,1,7.734-.08V.758s-1.9.255-3.9.3S-.27.94-.27.94-1.105-.279-.724-.781,1.911-.824,2.743-1.271Z" transform="translate(265.856 365.078) rotate(-40)" fill="url(#linear-gradient-35)"/>
    </g>
    <path id="Path_703" data-name="Path 703" d="M1.67.662c.559-.213.555.115,1.123,0A1.068,1.068,0,0,1,3.96.4c1.2.458.266,1.453.266,1.453L3.96,2.69s1.155,4.651,2,7.939c.6,2.336.94,3.3.528,3.982-.882,1.455-5.394,2.38-6.661.941-.529-.6-.622-2.636,0-5.456C.1,8.839,2.5,8.183,3.01,6.644c.541-1.651-.826-3.954-.826-3.954L1.5,2.06S.468,1.12,1.67.662Z" transform="translate(223 237)" fill="#e0e0e0"/>
    <path id="Path_704" data-name="Path 704" d="M5.96,10.629c.6,2.336.94,3.3.528,3.982-.882,1.455-5.394,2.38-6.661.941-.529-.6-.622-2.636,0-5.456.277-1.257,2.1-1.913,2.6-3.452.292-.89,2.126-1.224,2.9,0C5.693,7.19,5.571,9.113,5.96,10.629Z" transform="translate(223 237)" fill="#eceef5"/>
    <g id="Union_5" data-name="Union 5" transform="translate(3148.89 1164.969)" fill="#767574">
      <path d="M -2912.298095703125 -792.831298828125 C -2912.424072265625 -792.831298828125 -2912.5458984375 -792.8698120117188 -2912.650146484375 -792.942626953125 C -2912.926513671875 -793.136474609375 -2912.993896484375 -793.520263671875 -2912.799560546875 -793.7976684570312 L -2911.406494140625 -795.786865234375 L -2911.31591796875 -795.9160766601562 L -2911.31591796875 -796.07373046875 L -2911.31591796875 -826.6676025390625 L -2911.31591796875 -826.8253173828125 L -2911.406494140625 -826.9544677734375 L -2912.800537109375 -828.9447631835938 C -2912.89453125 -829.0791015625 -2912.9306640625 -829.2420654296875 -2912.902099609375 -829.4036254882812 C -2912.873779296875 -829.565185546875 -2912.7841796875 -829.7059326171875 -2912.649658203125 -829.7999267578125 C -2912.5458984375 -829.8726196289062 -2912.42431640625 -829.9110717773438 -2912.29833984375 -829.9110717773438 C -2912.09765625 -829.9110717773438 -2911.9091796875 -829.8131103515625 -2911.794189453125 -829.6490478515625 L -2910.156982421875 -827.3102416992188 C -2910.145751953125 -827.2271118164062 -2910.1318359375 -827.0986328125 -2910.129150390625 -826.9560546875 L -2910.119384765625 -826.4659423828125 L -2910.08837890625 -826.4659423828125 L -2910.08837890625 -796.2755126953125 L -2910.11865234375 -796.2755126953125 L -2910.12841796875 -795.785400390625 C -2910.131103515625 -795.6429443359375 -2910.14501953125 -795.5145263671875 -2910.15625 -795.4310913085938 L -2911.794189453125 -793.0933227539062 C -2911.9091796875 -792.9292602539062 -2912.097412109375 -792.8313598632812 -2912.298095703125 -792.831298828125 Z M -2907.44189453125 -799.626220703125 C -2907.91162109375 -799.626220703125 -2908.33251953125 -799.9234619140625 -2908.489013671875 -800.3659057617188 L -2908.60693359375 -800.6990356445312 L -2908.96044921875 -800.6990356445312 L -2909.08837890625 -800.6990356445312 L -2909.08837890625 -800.772705078125 L -2908.960205078125 -800.772705078125 L -2908.606689453125 -800.772705078125 L -2908.48876953125 -801.1058959960938 C -2908.332275390625 -801.5482788085938 -2907.91162109375 -801.8455200195312 -2907.44189453125 -801.8455200195312 C -2906.830322265625 -801.8455200195312 -2906.332763671875 -801.3475341796875 -2906.332763671875 -800.7354125976562 C -2906.332763671875 -800.123779296875 -2906.830322265625 -799.626220703125 -2907.44189453125 -799.626220703125 Z M -2907.44189453125 -820.3514404296875 C -2907.911865234375 -820.3514404296875 -2908.332763671875 -820.6485595703125 -2908.489013671875 -821.0908203125 L -2908.60693359375 -821.4241943359375 L -2908.96044921875 -821.4241943359375 L -2909.08837890625 -821.4241943359375 L -2909.08837890625 -821.4970092773438 L -2908.96044921875 -821.4970092773438 L -2908.60693359375 -821.4970092773438 L -2908.489013671875 -821.8304443359375 C -2908.332763671875 -822.272705078125 -2907.911865234375 -822.56982421875 -2907.44189453125 -822.56982421875 C -2906.830322265625 -822.56982421875 -2906.332763671875 -822.072265625 -2906.332763671875 -821.4606323242188 C -2906.332763671875 -820.8489990234375 -2906.830322265625 -820.3514404296875 -2907.44189453125 -820.3514404296875 Z" stroke="none"/>
      <path d="M -2912.298095703125 -793.331298828125 C -2912.275634765625 -793.331298828125 -2912.233642578125 -793.3377075195312 -2912.20361328125 -793.3802490234375 L -2910.638671875 -795.614013671875 C -2910.633544921875 -795.66796875 -2910.62939453125 -795.7299194335938 -2910.628173828125 -795.7952270507812 L -2910.60888671875 -796.7755126953125 L -2910.58837890625 -796.7755126953125 L -2910.58837890625 -825.9659423828125 L -2910.609619140625 -825.9659423828125 L -2910.62890625 -826.9461669921875 C -2910.630126953125 -827.0115966796875 -2910.63427734375 -827.0735473632812 -2910.639404296875 -827.1273193359375 L -2912.203857421875 -829.3622436523438 C -2912.233642578125 -829.4047241210938 -2912.27587890625 -829.4110717773438 -2912.29833984375 -829.4110717773438 C -2912.322021484375 -829.4110717773438 -2912.34326171875 -829.4042358398438 -2912.363037109375 -829.3903198242188 C -2912.388671875 -829.3724365234375 -2912.404296875 -829.3477172851562 -2912.40966796875 -829.3168334960938 C -2912.415283203125 -829.2859497070312 -2912.408935546875 -829.2572631835938 -2912.390869140625 -829.2315673828125 L -2910.996826171875 -827.2412719726562 L -2910.81591796875 -826.9829711914062 L -2910.81591796875 -826.6676025390625 L -2910.81591796875 -796.07373046875 L -2910.81591796875 -795.7583618164062 L -2910.996826171875 -795.5000610351562 L -2912.389892578125 -793.5109252929688 C -2912.42626953125 -793.4591674804688 -2912.413818359375 -793.3876342773438 -2912.363525390625 -793.3524780273438 C -2912.34326171875 -793.3382568359375 -2912.32177734375 -793.331298828125 -2912.298095703125 -793.331298828125 M -2907.44189453125 -800.126220703125 C -2907.10595703125 -800.126220703125 -2906.832763671875 -800.3994750976562 -2906.832763671875 -800.7354125976562 C -2906.832763671875 -801.0718383789062 -2907.10595703125 -801.3455200195312 -2907.44189453125 -801.3455200195312 C -2907.7001953125 -801.3455200195312 -2907.931396484375 -801.1821899414062 -2908.017578125 -800.9390869140625 L -2908.089599609375 -800.7354736328125 L -2908.017822265625 -800.53271484375 C -2907.931640625 -800.2896118164062 -2907.7001953125 -800.126220703125 -2907.44189453125 -800.126220703125 M -2907.44189453125 -820.8514404296875 C -2907.10595703125 -820.8514404296875 -2906.832763671875 -821.1246948242188 -2906.832763671875 -821.4606323242188 C -2906.832763671875 -821.7965087890625 -2907.10595703125 -822.06982421875 -2907.44189453125 -822.06982421875 C -2907.700439453125 -822.06982421875 -2907.931884765625 -821.9066772460938 -2908.017578125 -821.663818359375 L -2908.08935546875 -821.4605712890625 L -2908.017578125 -821.2574462890625 C -2907.931884765625 -821.0145874023438 -2907.700439453125 -820.8514404296875 -2907.44189453125 -820.8514404296875 M -2912.298095703125 -792.331298828125 C -2912.518798828125 -792.331298828125 -2912.74169921875 -792.3966674804688 -2912.9365234375 -792.5328369140625 C -2913.439453125 -792.8856201171875 -2913.56201171875 -793.5804443359375 -2913.209228515625 -794.0844116210938 L -2911.81591796875 -796.07373046875 L -2911.81591796875 -826.6676025390625 L -2913.2099609375 -828.6578979492188 C -2913.56298828125 -829.1619262695312 -2913.4404296875 -829.8567504882812 -2912.9365234375 -830.2095336914062 C -2912.741943359375 -830.3456420898438 -2912.51904296875 -830.4110717773438 -2912.29833984375 -830.4110717773438 C -2911.947265625 -830.4110717773438 -2911.6015625 -830.2454833984375 -2911.384765625 -829.9359130859375 L -2909.68115234375 -827.5023193359375 C -2909.68115234375 -827.5023193359375 -2909.635009765625 -827.2625732421875 -2909.629150390625 -826.9659423828125 L -2909.58837890625 -826.9659423828125 L -2909.58837890625 -795.7755126953125 L -2909.62841796875 -795.7755126953125 C -2909.63427734375 -795.4788818359375 -2909.68017578125 -795.2391357421875 -2909.68017578125 -795.2391357421875 L -2911.384765625 -792.806396484375 C -2911.6015625 -792.4969482421875 -2911.94677734375 -792.3313598632812 -2912.298095703125 -792.331298828125 Z M -2907.44189453125 -799.126220703125 C -2908.14306640625 -799.126220703125 -2908.7392578125 -799.5741577148438 -2908.96044921875 -800.1990356445312 L -2909.58837890625 -800.1990356445312 L -2909.58837890625 -801.272705078125 L -2908.960205078125 -801.272705078125 C -2908.739013671875 -801.897705078125 -2908.142822265625 -802.3455200195312 -2907.44189453125 -802.3455200195312 C -2906.5537109375 -802.3455200195312 -2905.832763671875 -801.6246337890625 -2905.832763671875 -800.7354125976562 C -2905.832763671875 -799.8471069335938 -2906.5537109375 -799.126220703125 -2907.44189453125 -799.126220703125 Z M -2907.44189453125 -819.8514404296875 C -2908.14306640625 -819.8514404296875 -2908.739501953125 -820.2990112304688 -2908.96044921875 -820.9241943359375 L -2909.58837890625 -820.9241943359375 L -2909.58837890625 -821.9970092773438 L -2908.96044921875 -821.9970092773438 C -2908.739501953125 -822.6222534179688 -2908.14306640625 -823.06982421875 -2907.44189453125 -823.06982421875 C -2906.5537109375 -823.06982421875 -2905.832763671875 -822.3497924804688 -2905.832763671875 -821.4606323242188 C -2905.832763671875 -820.5714111328125 -2906.5537109375 -819.8514404296875 -2907.44189453125 -819.8514404296875 Z" stroke="none" fill="#707070"/>
    </g>
    <g id="Group_196" data-name="Group 196" transform="translate(-3250 -876)">
      <path id="Path_713" data-name="Path 713" d="M257.728,56.812c-15.781,11.244-58.084,12.063-90.42,11.487s-73-7.922-92-16.425a1.465,1.465,0,1,1,2.813-.817c37.031,14.408,85.673,14.929,89.19,14.991s57.447,4.357,87.606-10.053a1.465,1.465,0,0,1,2.814.817Z" transform="translate(3281.102 1157.883)" fill="#ee5b55"/>
      <path id="Path_714" data-name="Path 714" d="M42.438,5.371a5.372,5.372,0,0,1-3.418,5V48.828H35.114V10.374a5.371,5.371,0,1,1,7.324-5Zm183.067,0a5.371,5.371,0,1,0-7.324,5V48.828h3.906V10.374A5.372,5.372,0,0,0,225.505,5.371Z" transform="translate(3320.399 1202)" fill="#ffc261"/>
      <path id="Path_715" data-name="Path 715" d="M39.15,15.655a5.346,5.346,0,0,0,2.8-.785A5.371,5.371,0,0,1,37.067,18V56.085H35.114V17.631a5.371,5.371,0,0,1-.844-9.589,5.371,5.371,0,0,0,4.881,7.613Zm183.067,0a5.371,5.371,0,0,1-4.881-7.613,5.371,5.371,0,0,0,.844,9.589V56.085h1.953V18a5.371,5.371,0,0,0,4.881-3.129A5.346,5.346,0,0,1,222.218,15.655Z" transform="translate(3320.399 1194.743)" fill="#f3b05f"/>
      <path id="Path_716" data-name="Path 716" d="M198.534,457.859h-14a1.465,1.465,0,0,1-1.39-1.928h0a1.465,1.465,0,0,1,1.39-1H186.4a1.465,1.465,0,0,1-1.39-1.928h0a1.465,1.465,0,0,1,1.39-1H196.67a1.465,1.465,0,0,1,1.39,1h0a1.465,1.465,0,0,1-1.39,1.928h1.864a1.465,1.465,0,0,1,1.39,1h0A1.465,1.465,0,0,1,198.534,457.859ZM16.857,455.931a1.465,1.465,0,0,0-1.39-1H13.6A1.465,1.465,0,0,0,14.992,453h0a1.465,1.465,0,0,0-1.39-1H3.33a1.465,1.465,0,0,0-1.39,1h0a1.465,1.465,0,0,0,1.39,1.928H1.466a1.465,1.465,0,0,0-1.39,1h0a1.465,1.465,0,0,0,1.39,1.928h14a1.465,1.465,0,0,0,1.39-1.928Z" transform="translate(3349 794.141)" fill="#ea744f"/>
      <path id="Path_717" data-name="Path 717" d="M32.218,101a1.465,1.465,0,0,1-1.39,1.928H20.556A1.465,1.465,0,0,1,19.166,101h0a1.465,1.465,0,0,1,1.39-1H30.828a1.465,1.465,0,0,1,1.39,1Zm171.4,1.928H213.9a1.465,1.465,0,0,0,1.39-1.928h0a1.465,1.465,0,0,0-1.39-1H203.623a1.465,1.465,0,0,0-1.39,1h0A1.465,1.465,0,0,0,203.623,102.93Zm11.662,32.447a1.465,1.465,0,0,0-1.39-1H203.623a1.465,1.465,0,0,0-1.39,1h0a1.465,1.465,0,0,0,1.39,1.928H213.9a1.465,1.465,0,0,0,1.39-1.928Zm-183.067,0a1.465,1.465,0,0,0-1.39-1H20.556a1.465,1.465,0,0,0-1.39,1h0a1.465,1.465,0,0,0,1.39,1.928H30.828a1.465,1.465,0,0,0,1.39-1.928Z" transform="translate(3331.775 1111.766)" fill="#f4925a"/>
    </g>
  </g>
</svg>
