<svg xmlns="http://www.w3.org/2000/svg" xmlns:xlink="http://www.w3.org/1999/xlink" width="265.78" height="157.713" viewBox="0 0 265.78 157.713">
  <defs>
    <linearGradient id="linear-gradient" x1="1" y1="0.41" x2="0.087" y2="0.28" gradientUnits="objectBoundingBox">
      <stop offset="0" stop-color="#fff"/>
      <stop offset="1" stop-color="#04a3e7"/>
    </linearGradient>
  </defs>
  <g id="Group_130" data-name="Group 130" transform="translate(-69.324 -125.949)">
    <path id="Path_363" data-name="Path 363" d="M175.334,89.951c0,48.325-11.112,56.711-63.027,56.711S7.947,143.35,7.947,95.026c33.9-33.189-76.035-63.2-4-86.724S161.455-17.78,224.831,3.269C289.615,31.062,175.334,41.626,175.334,89.951Z" transform="translate(90.392 137)" opacity="0.422" fill="url(#linear-gradient)"/>
    <g id="research">
      <g id="research-2" data-name="research" transform="translate(160 227.845)" opacity="0.93">
        <path id="Path_438" data-name="Path 438" d="M402,270.687h0a2.214,2.214,0,0,1-3.131,0l-14.505-14.505,3.13-3.131,14.5,14.5A2.214,2.214,0,0,1,402,270.687Z" transform="translate(-329.304 -274.926)" fill="#04a3e7"/>
        <g id="file" transform="translate(-6.5 -58.845)">
          <g id="Group_21" data-name="Group 21" transform="translate(0 2)">
            <path id="Path_471" data-name="Path 471" d="M46.5,14,32.5,0H1.5V58h45Z" fill="#fff" stroke="#04a3e7" stroke-width="3"/>
            <g id="Group_20" data-name="Group 20">
              <path id="Path_472" data-name="Path 472" d="M11.5,23h25a1,1,0,0,0,0-2h-25a1,1,0,0,0,0,2Z" fill="none" stroke="#04a3e7" stroke-width="1"/>
              <path id="Path_473" data-name="Path 473" d="M11.5,15h10a1,1,0,0,0,0-2h-10a1,1,0,0,0,0,2Z" fill="none" stroke="#04a3e7" stroke-width="1"/>
              <path id="Path_474" data-name="Path 474" d="M36.5,29h-25a1,1,0,0,0,0,2h25a1,1,0,0,0,0-2Z" fill="none" stroke="#04a3e7" stroke-width="1"/>
              <path id="Path_475" data-name="Path 475" d="M36.5,37h-25a1,1,0,0,0,0,2h25a1,1,0,0,0,0-2Z" fill="none" stroke="#04a3e7" stroke-width="1"/>
              <path id="Path_476" data-name="Path 476" d="M36.5,45h-25a1,1,0,0,0,0,2h25a1,1,0,0,0,0-2Z" fill="none" stroke="#04a3e7" stroke-width="1"/>
            </g>
            <path id="Path_477" data-name="Path 477" d="M32.5-.139V12.969H45.8Z" transform="translate(0 1)" fill="#04a3e7" stroke="#04a3e7" stroke-width="1"/>
          </g>
        </g>
        <circle id="Ellipse_51" data-name="Ellipse 51" cx="23.465" cy="23.465" r="23.465" transform="translate(9.379 -34.661) rotate(-45)" fill="#04a3e7"/>
        <path id="Path_450" data-name="Path 450" d="M196.776,63.457a19.037,19.037,0,1,1,0-26.923A19.059,19.059,0,0,1,196.776,63.457Z" transform="translate(-140.752 -84.657)" fill="#b5fcff"/>
        <path id="Path_451" data-name="Path 451" d="M297.34,36.539A19.013,19.013,0,0,0,281.665,31.1a19.027,19.027,0,0,1,0,37.8A19.03,19.03,0,0,0,297.34,36.539Z" transform="translate(-241.316 -84.661)" fill="#71f6fc"/>
        <path id="Path_495" data-name="Path 495" d="M4.787,10.406a.677.677,0,0,0,1.258,0L7.291,7.292l3.114-1.246a.677.677,0,0,0,0-1.258L7.291,3.541,6.045.426a.677.677,0,0,0-1.258,0L3.541,3.541.426,4.787a.677.677,0,0,0,0,1.258L3.541,7.291ZM4.313,4.691a.678.678,0,0,0,.378-.378L5.416,2.5l.725,1.814a.679.679,0,0,0,.378.378l1.814.725-1.814.725a.679.679,0,0,0-.378.378L5.416,8.333,4.691,6.519a.678.678,0,0,0-.378-.378L2.5,5.416Zm0,0" transform="translate(-24 -67.845)" fill="#04a3e7"/>
        <path id="Path_518" data-name="Path 518" d="M4.787,10.406a.677.677,0,0,0,1.258,0L7.291,7.292l3.114-1.246a.677.677,0,0,0,0-1.258L7.291,3.541,6.045.426a.677.677,0,0,0-1.258,0L3.541,3.541.426,4.787a.677.677,0,0,0,0,1.258L3.541,7.291ZM4.313,4.691a.678.678,0,0,0,.378-.378L5.416,2.5l.725,1.814a.679.679,0,0,0,.378.378l1.814.725-1.814.725a.679.679,0,0,0-.378.378L5.416,8.333,4.691,6.519a.678.678,0,0,0-.378-.378L2.5,5.416Zm0,0" transform="translate(-19 -32.845)" fill="#04a3e7"/>
        <path id="Path_519" data-name="Path 519" d="M4.787,10.406a.677.677,0,0,0,1.258,0L7.291,7.292l3.114-1.246a.677.677,0,0,0,0-1.258L7.291,3.541,6.045.426a.677.677,0,0,0-1.258,0L3.541,3.541.426,4.787a.677.677,0,0,0,0,1.258L3.541,7.291ZM4.313,4.691a.678.678,0,0,0,.378-.378L5.416,2.5l.725,1.814a.679.679,0,0,0,.378.378l1.814.725-1.814.725a.679.679,0,0,0-.378.378L5.416,8.333,4.691,6.519a.678.678,0,0,0-.378-.378L2.5,5.416Zm0,0" transform="translate(30 -78.845)" fill="#04a3e7"/>
        <path id="Path_497" data-name="Path 497" d="M171.689,62a.6.6,0,0,1-.427-.177l-1.707-1.707a.6.6,0,0,1,0-.854l1.707-1.707a.6.6,0,0,1,.854,0l1.707,1.707a.6.6,0,0,1,0,.854l-1.707,1.707A.6.6,0,0,1,171.689,62Zm-.854-2.311.854.854.854-.854-.854-.854Zm0,0" transform="translate(-170 -124.845)" fill="#04a3e7"/>
      </g>
    </g>
  </g>
</svg>
