<svg xmlns="http://www.w3.org/2000/svg" xmlns:xlink="http://www.w3.org/1999/xlink" width="263.498" height="154.656" viewBox="0 0 263.498 154.656">
  <defs>
    <linearGradient id="linear-gradient" x1="-0.118" y1="-0.186" x2="1.134" y2="0.705" gradientUnits="objectBoundingBox">
      <stop offset="0" stop-color="#fff"/>
      <stop offset="1" stop-color="#04a3e7"/>
    </linearGradient>
  </defs>
  <g id="Group_131" data-name="Group 131" transform="translate(-53.368 -128.466)">
    <path id="Path_363" data-name="Path 363" d="M213.3,73.975c-19.2,38.295-62.74,71.146-114.655,71.146C-19.878,135.746-60.337,36.834-32.687,7.728S33.528,23.333,88.98,19.772,158.043-20.068,189.122-6.517,232.5,35.681,213.3,73.975Z" transform="translate(94.392 138)" opacity="0.341" fill="url(#linear-gradient)"/>
    <g id="hourglass" transform="translate(158 187)">
      <path id="Path_464" data-name="Path 464" d="M41.857,22.1A7.063,7.063,0,0,0,45,16.222V5H15V16.222A7.063,7.063,0,0,0,18.143,22.1l9.319,6.843A1.316,1.316,0,0,1,28,30h0a1.318,1.318,0,0,1-.537,1.061L18.144,37.9A7.061,7.061,0,0,0,15,43.778V55H45V43.778A7.063,7.063,0,0,0,41.857,37.9l-9.319-6.843A1.316,1.316,0,0,1,32,30h0a1.318,1.318,0,0,1,.537-1.061Z" fill="#fff"/>
      <rect id="Rectangle_1298" data-name="Rectangle 1298" width="40" height="4" transform="translate(10 55)" fill="#12a8e8"/>
      <rect id="Rectangle_1299" data-name="Rectangle 1299" width="40" height="4" transform="translate(10 1)" fill="#12a8e8"/>
      <g id="Group_17" data-name="Group 17">
        <path id="Path_465" data-name="Path 465" d="M54,58H6c-.552,0-1,1.131-1,2.531s.448,2.531,1,2.531H54c.552,0,1-1.131,1-2.531S54.552,58,54,58Z" transform="translate(0 -3.061)" fill="#12a8e8"/>
        <path id="Path_466" data-name="Path 466" d="M6,5.349H54c.552,0,1-1.2,1-2.675S54.552,0,54,0H6C5.448,0,5,1.2,5,2.675S5.448,5.349,6,5.349Z" fill="#12a8e8"/>
      </g>
      <path id="Path_467" data-name="Path 467" d="M40.192,19.6A4.053,4.053,0,0,0,42,16.223h0a2.847,2.847,0,0,0-2.156-2.762L24.791,9.7A5.465,5.465,0,0,0,18,15v1.223A4.053,4.053,0,0,0,19.808,19.6L29,26.346V42.223a4.97,4.97,0,0,1-7.058,4.511h0A2.752,2.752,0,0,0,18,49.083V55H42V43.736a3.193,3.193,0,0,0-3.791-2.991l-2.049.357A4.405,4.405,0,0,1,31,36.763V26.346Z" fill="#12a8e8"/>
    </g>
  </g>
</svg>
