<svg xmlns="http://www.w3.org/2000/svg" xmlns:xlink="http://www.w3.org/1999/xlink" width="176.24" height="85.577" viewBox="0 0 176.24 85.577">
  <defs>
    <linearGradient id="linear-gradient" x1="-0.165" y1="0.193" x2="0.941" y2="1.089" gradientUnits="objectBoundingBox">
      <stop offset="0" stop-color="#fff"/>
      <stop offset="1" stop-color="#ff6b6b"/>
    </linearGradient>
  </defs>
  <g id="Group_655" data-name="Group 655" transform="translate(-93 -125)">
    <path id="Path_880" data-name="Path 880" d="M49.844,0c33.337,0,97,35.433,97,66.465S99.222,81.408,65.885,81.408-29.392,90.029-29.392,59c0-17.781,29.025-12.457,43.018-22.86C23.8,28.572,35.609,0,49.844,0Z" transform="translate(122.392 125)" opacity="0.214" fill="url(#linear-gradient)"/>
    <g id="round-cancel-24px" transform="translate(160 145)">
      <path id="Path_883" data-name="Path 883" d="M0,0H55V55H0Z" fill="none" opacity="0.87"/>
      <path id="Path_884" data-name="Path 884" d="M24.917,2A22.917,22.917,0,1,0,47.833,24.917,22.9,22.9,0,0,0,24.917,2Zm9.854,32.771a2.282,2.282,0,0,1-3.231,0l-6.623-6.623-6.623,6.623a2.285,2.285,0,1,1-3.231-3.231l6.623-6.623-6.623-6.623a2.285,2.285,0,1,1,3.231-3.231l6.623,6.623,6.623-6.623a2.285,2.285,0,0,1,3.231,3.231l-6.623,6.623,6.623,6.623a2.325,2.325,0,0,1,0,3.231Z" transform="translate(2.583 2.583)" fill="#ff6b6b"/>
    </g>
  </g>
</svg>
