<svg xmlns="http://www.w3.org/2000/svg" xmlns:xlink="http://www.w3.org/1999/xlink" width="274.454" height="146.822" viewBox="0 0 274.454 146.822">
  <defs>
    <linearGradient id="linear-gradient" x1="-0.165" y1="0.193" x2="0.941" y2="1.089" gradientUnits="objectBoundingBox">
      <stop offset="0" stop-color="#fff"/>
      <stop offset="1" stop-color="#04a3e7"/>
    </linearGradient>
  </defs>
  <g id="Group_132" data-name="Group 132" transform="translate(-61 -119)">
    <path id="Path_363" data-name="Path 363" d="M94,0c51.915,0,151.063,55.18,151.063,103.5s-80.841,43.157-132.756,43.157-141.7-6.462-141.7-54.787c0-27.69,45.2-19.4,66.991-35.6C53.447,44.495,71.832,0,94,0Z" transform="translate(90.392 119)" opacity="0.214" fill="url(#linear-gradient)"/>
    <g id="locked" transform="translate(170.5 163)">
      <path id="Path_481" data-name="Path 481" d="M16.5,28V12.6C16.5,6.77,21.675,2,28,2h0c6.325,0,11.5,4.77,11.5,10.6V28Z" fill="none" stroke="#04a3e7" stroke-linecap="round" stroke-miterlimit="10" stroke-width="4"/>
      <rect id="Rectangle_1300" data-name="Rectangle 1300" width="42" height="41" rx="5" transform="translate(7.5 25)" fill="#fff" stroke="#04a3e7" stroke-width="3"/>
      <path id="Path_482" data-name="Path 482" d="M48.249,48.151a1.133,1.133,0,0,1-2.079.9,7.313,7.313,0,0,0-13.194,0,1.133,1.133,0,1,1-2.092-.868,9.575,9.575,0,0,1,17.365-.028ZM31.719,34.811a2.341,2.341,0,1,1,2.341,2.342A2.342,2.342,0,0,1,31.719,34.811Zm10.616,0a2.342,2.342,0,1,1,2.342,2.342A2.342,2.342,0,0,1,42.336,34.811Z" transform="translate(-11.5 3.479)" fill="#04a3e7"/>
    </g>
  </g>
</svg>
