<svg xmlns="http://www.w3.org/2000/svg" xmlns:xlink="http://www.w3.org/1999/xlink" width="251.81" height="165.098" viewBox="0 0 251.81 165.098">
  <defs>
    <linearGradient id="linear-gradient" x1="-0.165" y1="0.193" x2="0.941" y2="1.089" gradientUnits="objectBoundingBox">
      <stop offset="0" stop-color="#fff"/>
      <stop offset="1" stop-color="#04a3e7"/>
    </linearGradient>
  </defs>
  <g id="Group_134" data-name="Group 134" transform="translate(-61 -82.389)">
    <path id="Path_363" data-name="Path 363" d="M121.493-36.611c51.915,0,81.239,65.547,98.2,114.013s-48.8,49.372-100.713,49.372S-29.392,140.2-29.392,91.875c0-27.69,85.814-55,107.606-71.2C94.062,8.9,99.325-36.611,121.493-36.611Z" transform="translate(90.392 119)" opacity="0.214" fill="url(#linear-gradient)"/>
    <g id="Group_36" data-name="Group 36" transform="translate(-23 7)">
      <g id="locked" transform="translate(129.5 164)">
        <path id="Path_481" data-name="Path 481" d="M16.5,28V12.6C16.5,6.77,21.675,2,28,2h0c6.325,0,11.5,4.77,11.5,10.6V28Z" fill="none" stroke="#04a3e7" stroke-linecap="round" stroke-miterlimit="10" stroke-width="4"/>
        <rect id="Rectangle_1300" data-name="Rectangle 1300" width="42" height="41" rx="5" transform="translate(7.5 25)" fill="#fff" stroke="#04a3e7" stroke-width="3"/>
        <path id="Path_516" data-name="Path 516" d="M115.371,233.841a3.031,3.031,0,0,0,2.966-3.64h.3a1.543,1.543,0,0,0,0-3.085H108.9a1.543,1.543,0,0,0,0,3.085H112.4a3.031,3.031,0,0,0,2.966,3.64Z" transform="translate(-91.206 -192.848)" fill="#04a3e7"/>
        <path id="Path_517" data-name="Path 517" d="M258.266,227.116h-9.732a1.543,1.543,0,0,0,0,3.085h4.452a3.028,3.028,0,1,0,5.994.612,3.017,3.017,0,0,0-.1-.742,1.542,1.542,0,0,0-.618-2.956Z" transform="translate(-213.914 -192.848)" fill="#04a3e7"/>
        <rect id="Rectangle_1324" data-name="Rectangle 1324" width="3" height="9" rx="1.5" transform="translate(23 50.5) rotate(-90)" fill="#04a3e7"/>
      </g>
    </g>
    <g id="Group_40" data-name="Group 40" transform="translate(-17 -7)">
      <g id="gift" transform="translate(205 144.398)">
        <g id="Group_37" data-name="Group 37" transform="translate(8.318 18.437)">
          <path id="Path_500" data-name="Path 500" d="M81.639,37.922c-5.76-6.38-14.626-15.05-17.767-11.882-4.8,4.845-9.86,17.991,0,17.991H81.639Z" transform="translate(-58.219 -25.366)" fill="#04a3e7"/>
          <path id="Path_501" data-name="Path 501" d="M289.861,37.922c5.76-6.38,14.626-15.05,17.767-11.882,4.8,4.845,9.86,17.991,0,17.991H289.861Z" transform="translate(-256.766 -25.366)" fill="#04a3e7"/>
        </g>
        <rect id="Rectangle_1303" data-name="Rectangle 1303" width="60.91" height="35.838" transform="translate(6.12 48.502)" fill="#fff"/>
        <path id="Path_515" data-name="Path 515" d="M0,0H60.91V4.62H0Z" transform="translate(6.12 48.502)" fill="#04a3e8"/>
        <rect id="Rectangle_1305" data-name="Rectangle 1305" width="70.841" height="11.398" transform="translate(1.155 37.105)" fill="#fff"/>
        <g id="rectangle" transform="translate(28.859 37.105)">
          <rect id="Rectangle_1306" data-name="Rectangle 1306" width="15.434" height="11.398" fill="#fff"/>
          <rect id="Rectangle_1307" data-name="Rectangle 1307" width="11.801" height="35.838" transform="translate(1.817 11.398)" fill="#fff"/>
        </g>
        <rect id="Rectangle_1308" data-name="Rectangle 1308" width="11.801" height="4.595" transform="translate(30.676 48.502)" fill="#fff"/>
        <g id="Group_39" data-name="Group 39" transform="translate(8.319 27.174)">
          <path id="Path_502" data-name="Path 502" d="M65.657,87.731c-4.357-1.972-6.176-1.193-6.928-.057-1.238,4.546-.446,8.776,5.147,8.776H77.023S73.736,91.388,65.657,87.731Z" transform="translate(-58.224 -86.521)" fill="#fff"/>
          <path id="Path_503" data-name="Path 503" d="M333.568,87.731c4.357-1.972,6.176-1.193,6.927-.057,1.238,4.546.446,8.776-5.147,8.776H322.2S325.489,91.388,333.568,87.731Z" transform="translate(-284.486 -86.521)" fill="#fff"/>
        </g>
        <rect id="Rectangle_1309" data-name="Rectangle 1309" width="9.676" height="7.252" transform="translate(31.738 29.851)" fill="#fff"/>
        <path id="Path_504" data-name="Path 504" d="M72,35.95H64.741c.085-.111.163-.224.236-.337l.006-.01c.076-.118.145-.236.209-.354l.012-.022c.068-.128.131-.255.187-.38l0-.006c.018-.042.037-.083.054-.124s.036-.1.055-.146c.027-.069.054-.139.079-.21s.039-.119.057-.179c.029-.093.058-.187.083-.282.008-.032.016-.065.024-.1a10.584,10.584,0,0,0-.04-4.668l0-.018c-.037-.181-.077-.364-.122-.549-.02-.086-.044-.173-.066-.26s-.046-.186-.071-.281c0-.005,0-.01-.005-.015a20.865,20.865,0,0,0-.656-2A23.341,23.341,0,0,0,60,18.3a3.524,3.524,0,0,0-2.649-1.016c-3.268.076-8.474,3.946-15.486,11.506a1.152,1.152,0,0,0-.452-.092H31.737a1.152,1.152,0,0,0-.452.092C24.273,21.229,19.066,17.359,15.8,17.283A3.52,3.52,0,0,0,13.15,18.3a23.339,23.339,0,0,0-4.78,7.712,20.909,20.909,0,0,0-.655,2c0,.006,0,.011-.006.016-.028.1-.052.2-.078.306-.02.077-.04.155-.059.232A11.071,11.071,0,0,0,7.407,33.8c.008.032.015.064.024.1.026.1.055.191.084.285.018.059.037.119.057.177s.052.142.079.212c.018.048.035.1.054.145s.035.082.053.123l0,.007c.056.125.118.252.186.38l.012.023c.064.118.133.236.209.354l.006.01c.073.113.151.226.236.337H1.155A1.155,1.155,0,0,0,0,37.1V48.5a1.155,1.155,0,0,0,1.155,1.155h3.81V54.8a1.155,1.155,0,1,0,2.31,0V49.657H29.52V63.273a1.155,1.155,0,0,0,2.31,0V49.657h9.491V83.185H31.83V67.893a1.155,1.155,0,0,0-2.31,0V83.185H7.275V59.423a1.155,1.155,0,1,0-2.31,0V84.34A1.155,1.155,0,0,0,6.12,85.495h60.91a1.155,1.155,0,0,0,1.155-1.155v-6.3a1.155,1.155,0,1,0-2.31,0v5.142H43.631V49.657H65.876V73.423a1.155,1.155,0,0,0,2.31,0V49.657H72A1.155,1.155,0,0,0,73.151,48.5v-11.4A1.155,1.155,0,0,0,72,35.95Zm-8.349-3.58c0,.022,0,.043-.006.065-.009.09-.02.178-.032.266-.007.047-.013.1-.021.141s-.021.114-.033.17-.026.13-.041.193c-.007.029-.016.057-.023.086a3.753,3.753,0,0,1-.442,1.048,2.99,2.99,0,0,1-.317.414l-.027.028c-.046.049-.094.1-.143.142l-.071.063c-.033.029-.068.057-.1.085s-.073.058-.111.085l-.041.028a4.523,4.523,0,0,1-2.074.708l-.085.01c-.068.007-.138.013-.208.019l-.172.011-.158.008c-.117,0-.236.007-.359.007H48.492a29.87,29.87,0,0,1,9.385-6.512c2.7-1.22,4.636-1.435,5.38-.608A10.871,10.871,0,0,1,63.647,32.37ZM32.893,31.007h7.366v4.941H32.893Zm-23-2.179c.745-.827,2.684-.612,5.38.608a29.869,29.869,0,0,1,9.385,6.512H13.971c-.123,0-.241,0-.359-.007l-.158-.008-.172-.011c-.07-.006-.14-.012-.208-.019l-.085-.01a4.523,4.523,0,0,1-2.074-.708l-.041-.028c-.038-.028-.075-.057-.111-.085s-.069-.056-.1-.085l-.071-.063c-.049-.046-.1-.093-.143-.142l-.027-.028a3.008,3.008,0,0,1-.317-.414,3.742,3.742,0,0,1-.442-1.046c-.008-.03-.017-.058-.024-.088-.015-.062-.028-.127-.041-.191s-.023-.115-.033-.173-.014-.092-.021-.138c-.012-.089-.024-.179-.033-.271,0-.02,0-.04-.006-.06A10.849,10.849,0,0,1,9.895,28.827ZM27.7,47.347H2.31V38.26H27.7Zm0-11.4a29.972,29.972,0,0,0-11.481-8.616,11.932,11.932,0,0,0-5.374-1.287,20.329,20.329,0,0,1,3.938-6.119,1.152,1.152,0,0,1,.9-.333h.052c2.651.062,8.048,4.373,14.837,11.846v4.509H27.708Zm15.43,11.4H30.013V38.26H43.138v9.087Zm-.569-11.4V31.438c6.79-7.473,12.187-11.784,14.837-11.846a1.179,1.179,0,0,1,.954.332A20.327,20.327,0,0,1,62.3,26.044a11.931,11.931,0,0,0-5.374,1.287,29.977,29.977,0,0,0-11.481,8.616H42.569Zm28.273,11.4H45.448V38.26H70.841v9.087Z" fill="#04a3e7"/>
      </g>
      <rect id="Rectangle_1310" data-name="Rectangle 1310" width="4" height="38" rx="2" transform="translate(208 126)" fill="#04a3e7"/>
      <rect id="Rectangle_1312" data-name="Rectangle 1312" width="4" height="21" rx="2" transform="translate(224 133)" fill="#04a3e7"/>
      <rect id="Rectangle_1313" data-name="Rectangle 1313" width="4" height="4" rx="2" transform="translate(268 137)" fill="#04a3e7"/>
      <rect id="Rectangle_1314" data-name="Rectangle 1314" width="4" height="21" rx="2" transform="translate(238 126)" fill="#04a3e7"/>
      <rect id="Rectangle_1315" data-name="Rectangle 1315" width="4" height="21" rx="2" transform="translate(260 137)" fill="#04a3e7"/>
      <rect id="Rectangle_1316" data-name="Rectangle 1316" width="4" height="8" rx="2" transform="translate(260 127)" fill="#04a3e7"/>
      <rect id="Rectangle_1319" data-name="Rectangle 1319" width="4" height="4" rx="2" transform="translate(238 118)" fill="#04a3e7"/>
      <rect id="Rectangle_1323" data-name="Rectangle 1323" width="4" height="4" rx="2" transform="translate(224 127)" fill="#04a3e7"/>
      <rect id="Rectangle_1317" data-name="Rectangle 1317" width="4" height="21" rx="2" transform="translate(268 144)" fill="#04a3e7"/>
      <rect id="Rectangle_1318" data-name="Rectangle 1318" width="4" height="9" rx="2" transform="translate(208 114)" fill="#04a3e7"/>
    </g>
  </g>
</svg>
