<svg xmlns="http://www.w3.org/2000/svg" xmlns:xlink="http://www.w3.org/1999/xlink" width="274.454" height="133.268" viewBox="0 0 274.454 133.268">
  <defs>
    <linearGradient id="linear-gradient" x1="-0.165" y1="0.193" x2="0.941" y2="1.089" gradientUnits="objectBoundingBox">
      <stop offset="0" stop-color="#fff"/>
      <stop offset="1" stop-color="#04a3e7"/>
    </linearGradient>
  </defs>
  <g id="Group_135" data-name="Group 135" transform="translate(-61 -119)">
    <path id="Path_363" data-name="Path 363" d="M94,0c51.915,0,151.063,55.18,151.063,103.5s-74.167,23.27-126.081,23.27S-29.392,140.2-29.392,91.875c0-27.69,45.2-19.4,66.991-35.6C53.447,44.495,71.832,0,94,0Z" transform="translate(90.392 119)" opacity="0.214" fill="url(#linear-gradient)"/>
    <g id="Group_36" data-name="Group 36" transform="translate(9 1)">
      <g id="locked" transform="translate(129.5 164)">
        <path id="Path_481" data-name="Path 481" d="M16.5,28V12.6C16.5,6.77,21.675,2,28,2h0c6.325,0,11.5,4.77,11.5,10.6V28Z" fill="none" stroke="#04a3e7" stroke-linecap="round" stroke-miterlimit="10" stroke-width="4"/>
        <rect id="Rectangle_1300" data-name="Rectangle 1300" width="42" height="41" rx="5" transform="translate(7.5 25)" fill="#fff" stroke="#04a3e7" stroke-width="3"/>
        <g id="happy" transform="translate(-16.5 -14.807)">
          <g id="Group_28" data-name="Group 28" transform="translate(34.311 55.105)">
            <g id="Group_27" data-name="Group 27">
              <path id="Path_484" data-name="Path 484" d="M112.236,170.978a4.443,4.443,0,0,0-6.277,0,1.057,1.057,0,0,0,1.495,1.495,2.328,2.328,0,0,1,3.288,0,1.057,1.057,0,0,0,1.494-1.495Z" transform="translate(-105.65 -169.68)" fill="#04a3e7"/>
            </g>
          </g>
          <g id="Group_30" data-name="Group 30" transform="translate(48.269 55.105)">
            <g id="Group_29" data-name="Group 29">
              <path id="Path_485" data-name="Path 485" d="M313.5,170.978a4.443,4.443,0,0,0-6.277,0,1.057,1.057,0,0,0,1.495,1.495,2.328,2.328,0,0,1,3.288,0,1.057,1.057,0,0,0,1.494-1.495Z" transform="translate(-306.912 -169.68)" fill="#04a3e7"/>
            </g>
          </g>
          <g id="Group_32" data-name="Group 32" transform="translate(34.311 61.867)">
            <g id="Group_31" data-name="Group 31">
              <path id="Path_486" data-name="Path 486" d="M125.449,267.175H106.708a1.057,1.057,0,0,0-1.057,1.057,10.427,10.427,0,0,0,20.854,0A1.057,1.057,0,0,0,125.449,267.175Zm-9.37,9.37a8.326,8.326,0,0,1-8.247-7.257h16.493A8.326,8.326,0,0,1,116.078,276.545Z" transform="translate(-105.651 -267.175)" fill="#04a3e7"/>
            </g>
          </g>
        </g>
      </g>
      <g id="Key" transform="translate(0 -7.757)">
        <path id="house-key" d="M.619,41.9a1.33,1.33,0,0,1,.4-.844L20.983,21.084a15.156,15.156,0,1,1,8.03,8.031l-6.56,6.565a1.372,1.372,0,0,1-1.021.4l-3.575-.125.117,3.584a1.367,1.367,0,0,1-1.411,1.415l-3.588-.123.129,3.58a1.4,1.4,0,0,1-.4,1.016,1.312,1.312,0,0,1-1.021.4L8.106,45.7l.12,3.58a1.363,1.363,0,0,1-.43,1.05,1.377,1.377,0,0,1-.933.366c-.049,0-.1,0-.151-.007l-5.488-.609A1.376,1.376,0,0,1,.005,48.6Z" transform="translate(166.975 201.906) rotate(-45)" fill="#fff" stroke="#04a3e7" stroke-width="3"/>
        <g id="Group_33" data-name="Group 33" transform="translate(194.557 182.141)">
          <g id="Group_27-2" data-name="Group 27">
            <path id="Path_484-2" data-name="Path 484" d="M110.3,170.6a3.135,3.135,0,0,0-4.429,0,.746.746,0,0,0,1.055,1.054,1.642,1.642,0,0,1,2.32,0A.746.746,0,1,0,110.3,170.6Z" transform="translate(-105.65 -169.68)" fill="#04a3e7"/>
          </g>
        </g>
        <g id="Group_34" data-name="Group 34" transform="translate(204.406 182.141)">
          <g id="Group_29-2" data-name="Group 29">
            <path id="Path_485-2" data-name="Path 485" d="M311.559,170.6a3.135,3.135,0,0,0-4.429,0,.746.746,0,1,0,1.055,1.054,1.642,1.642,0,0,1,2.32,0,.746.746,0,0,0,1.054-1.054Z" transform="translate(-306.912 -169.68)" fill="#04a3e7"/>
          </g>
        </g>
        <g id="Group_35" data-name="Group 35" transform="translate(194.557 186.911)">
          <g id="Group_31-2" data-name="Group 31">
            <path id="Path_486-2" data-name="Path 486" d="M119.619,267.175H106.4a.746.746,0,0,0-.746.746,7.357,7.357,0,1,0,14.714,0A.746.746,0,0,0,119.619,267.175Zm-6.611,6.611a5.874,5.874,0,0,1-5.818-5.12h11.637A5.874,5.874,0,0,1,113.008,273.786Z" transform="translate(-105.651 -267.175)" fill="#04a3e7"/>
          </g>
        </g>
      </g>
    </g>
    <path id="Path_495" data-name="Path 495" d="M4.787,10.406a.677.677,0,0,0,1.258,0L7.291,7.292l3.114-1.246a.677.677,0,0,0,0-1.258L7.291,3.541,6.045.426a.677.677,0,0,0-1.258,0L3.541,3.541.426,4.787a.677.677,0,0,0,0,1.258L3.541,7.291ZM4.313,4.691a.678.678,0,0,0,.378-.378L5.416,2.5l.725,1.814a.679.679,0,0,0,.378.378l1.814.725-1.814.725a.679.679,0,0,0-.378.378L5.416,8.333,4.691,6.519a.678.678,0,0,0-.378-.378L2.5,5.416Zm0,0" transform="translate(188 156)" fill="#04a3e7"/>
    <path id="Path_496" data-name="Path 496" d="M4.787,10.406a.677.677,0,0,0,1.258,0L7.291,7.292l3.114-1.246a.677.677,0,0,0,0-1.258L7.291,3.541,6.045.426a.677.677,0,0,0-1.258,0L3.541,3.541.426,4.787a.677.677,0,0,0,0,1.258L3.541,7.291ZM4.313,4.691a.678.678,0,0,0,.378-.378L5.416,2.5l.725,1.814a.679.679,0,0,0,.378.378l1.814.725-1.814.725a.679.679,0,0,0-.378.378L5.416,8.333,4.691,6.519a.678.678,0,0,0-.378-.378L2.5,5.416Zm0,0" transform="translate(230 162)" fill="#04a3e7"/>
    <path id="Path_497" data-name="Path 497" d="M171.689,62a.6.6,0,0,1-.427-.177l-1.707-1.707a.6.6,0,0,1,0-.854l1.707-1.707a.6.6,0,0,1,.854,0l1.707,1.707a.6.6,0,0,1,0,.854l-1.707,1.707A.6.6,0,0,1,171.689,62Zm-.854-2.311.854.854.854-.854-.854-.854Zm0,0" transform="translate(39 99)" fill="#04a3e7"/>
    <path id="Path_498" data-name="Path 498" d="M171.689,62a.6.6,0,0,1-.427-.177l-1.707-1.707a.6.6,0,0,1,0-.854l1.707-1.707a.6.6,0,0,1,.854,0l1.707,1.707a.6.6,0,0,1,0,.854l-1.707,1.707A.6.6,0,0,1,171.689,62Zm-.854-2.311.854.854.854-.854-.854-.854Zm0,0" transform="translate(56 139)" fill="#04a3e7"/>
    <path id="Path_499" data-name="Path 499" d="M4.787,10.406a.677.677,0,0,0,1.258,0L7.291,7.292l3.114-1.246a.677.677,0,0,0,0-1.258L7.291,3.541,6.045.426a.677.677,0,0,0-1.258,0L3.541,3.541.426,4.787a.677.677,0,0,0,0,1.258L3.541,7.291ZM4.313,4.691a.678.678,0,0,0,.378-.378L5.416,2.5l.725,1.814a.679.679,0,0,0,.378.378l1.814.725-1.814.725a.679.679,0,0,0-.378.378L5.416,8.333,4.691,6.519a.678.678,0,0,0-.378-.378L2.5,5.416Zm0,0" transform="translate(191 196)" fill="#04a3e7"/>
  </g>
</svg>
