<svg xmlns="http://www.w3.org/2000/svg" xmlns:xlink="http://www.w3.org/1999/xlink" width="68" height="70" viewBox="0 0 68 70">
  <defs>
    <filter id="Rectangle_1446" x="0" y="0" width="68" height="68" filterUnits="userSpaceOnUse">
      <feOffset input="SourceAlpha"/>
      <feGaussianBlur stdDeviation="2.5" result="blur"/>
      <feFlood flood-opacity="0.251"/>
      <feComposite operator="in" in2="blur"/>
      <feComposite in="SourceGraphic"/>
    </filter>
    <filter id="Path_794" x="0" y="37.575" width="68" height="32.425" filterUnits="userSpaceOnUse">
      <feOffset input="SourceAlpha"/>
      <feGaussianBlur stdDeviation="2.5" result="blur-2"/>
      <feFlood flood-opacity="0.098"/>
      <feComposite operator="in" in2="blur-2"/>
      <feComposite in="SourceGraphic"/>
    </filter>
    <filter id="Path_795" x="0" y="37.351" width="68" height="32.649" filterUnits="userSpaceOnUse">
      <feOffset input="SourceAlpha"/>
      <feGaussianBlur stdDeviation="2.5" result="blur-3"/>
      <feFlood flood-opacity="0.098"/>
      <feComposite operator="in" in2="blur-3"/>
      <feComposite in="SourceGraphic"/>
    </filter>
    <filter id="Path_796" x="0" y="39.705" width="68" height="30.295" filterUnits="userSpaceOnUse">
      <feOffset input="SourceAlpha"/>
      <feGaussianBlur stdDeviation="2.5" result="blur-4"/>
      <feFlood flood-opacity="0.098"/>
      <feComposite operator="in" in2="blur-4"/>
      <feComposite in="SourceGraphic"/>
    </filter>
  </defs>
  <g id="Group_650" data-name="Group 650" transform="translate(-287.5 -354.5)">
    <g transform="matrix(1, 0, 0, 1, 287.5, 354.5)" filter="url(#Rectangle_1446)">
      <rect id="Rectangle_1446-2" data-name="Rectangle 1446" width="53" height="53" rx="15" transform="translate(7.5 7.5)" fill="#fff"/>
    </g>
    <path id="Path_773" data-name="Path 773" d="M76.98,29.88H72.713a8.8,8.8,0,0,1-8.8-8.8V10.937A10.937,10.937,0,0,1,74.847,0h0A10.937,10.937,0,0,1,85.784,10.937v10.14A8.8,8.8,0,0,1,76.98,29.88Z" transform="translate(247.865 368.081)" fill="#606572"/>
    <path id="Path_774" data-name="Path 774" d="M216.956,0h0q-.431,0-.854.033a10.938,10.938,0,0,1,10.083,10.9v10.14a8.8,8.8,0,0,1-8.8,8.8h1.709a8.8,8.8,0,0,0,8.8-8.8V10.937A10.937,10.937,0,0,0,216.956,0Z" transform="translate(105.755 368.081)" fill="#3b4254"/>
    <path id="Path_775" data-name="Path 775" d="M105.892,283.541H87.125l.158-2.511a4.276,4.276,0,0,1,3.243-3.883l2.727-.674a.3.3,0,0,0,.229-.292v-6.1h6.083v6.111a.3.3,0,0,0,.229.292l2.7.666a4.276,4.276,0,0,1,3.243,3.883Z" transform="translate(226.187 116.896)" fill="#f9c295"/>
    <path id="Path_776" data-name="Path 776" d="M259.266,281.031a4.276,4.276,0,0,0-3.243-3.883l-2.7-.666a.3.3,0,0,1-.229-.292v-6.111h-1.547v6.111a.3.3,0,0,0,.229.292l2.7.666a4.276,4.276,0,0,1,3.243,3.883l.158,2.511h1.547Z" transform="translate(72.654 116.895)" fill="#e8a26a"/>
    <path id="Path_777" data-name="Path 777" d="M183.085,275.179a5.922,5.922,0,0,0,6.083,0v-5.1h-6.083Z" transform="translate(136.584 115.896)" fill="#e8a26a"/>
    <path id="Path_778" data-name="Path 778" d="M129.02,111.364c-.944,4.839-4.855,7.624-7.844,7.624-2.815,0-6.45-2.471-7.65-6.8,5.351-.762,9.861-5.722,10.99-8.6C124.516,103.585,124.516,109.924,129.02,111.364Z" transform="translate(201.535 271.358)" fill="#f9c295"/>
    <path id="Path_779" data-name="Path 779" d="M227.866,202.727c-.254,5.293-3.6,8.5-6.292,8.81.166.016.33.025.492.025,2.989,0,6.9-2.785,7.844-7.624A5.269,5.269,0,0,1,227.866,202.727Z" transform="translate(100.645 178.784)" fill="#e8a26a"/>
    <g id="Group_470" data-name="Group 470" transform="translate(329.331 370.212)">
      <path id="Path_780" data-name="Path 780" d="M331.388,32.389a2.673,2.673,0,0,1-2.257,2.256.289.289,0,0,0,0,.557,2.673,2.673,0,0,1,2.257,2.256.289.289,0,0,0,.557,0A2.672,2.672,0,0,1,334.2,35.2a.289.289,0,0,0,0-.557,2.673,2.673,0,0,1-2.257-2.256A.289.289,0,0,0,331.388,32.389Z" transform="translate(-328.918 -32.176)" fill="#fee9a1"/>
    </g>
    <g id="Group_472" data-name="Group 472" transform="translate(330.303 384.878)">
      <path id="Path_781" data-name="Path 781" d="M347.56,260.609l-3.57-3.3a1.244,1.244,0,0,1,.419-2.083l4.4-1.6a1.244,1.244,0,0,1,1.66,1.326l-.614,4.822Z" transform="translate(-343.589 -253.548)" fill="#fee9a1"/>
      <path id="Path_782" data-name="Path 782" d="M406.655,253.625l-1.115.406c.7-.255,1.489.507,1.452,1.4l-.2,4.67.9-.329.614-4.822A1.244,1.244,0,0,0,406.655,253.625Z" transform="translate(-401.436 -253.548)" fill="#fdca67"/>
      <g id="Group_471" data-name="Group 471" transform="translate(1.218 0.222)">
        <path id="Path_783" data-name="Path 783" d="M403.406,258.459a4.658,4.658,0,0,0-.592-1.562l-.961.35a3.438,3.438,0,0,1,.573,1.383l.225,1.289a.5.5,0,0,0,.979-.171Z" transform="translate(-399.212 -256.897)" fill="#dda84a"/>
        <path id="Path_784" data-name="Path 784" d="M362.531,273.337l.656,1.132a.5.5,0,0,0,.86-.5l-.656-1.132a3.437,3.437,0,0,1-.45-1.428l-.96.349A4.658,4.658,0,0,0,362.531,273.337Z" transform="translate(-361.981 -270.449)" fill="#dda84a"/>
      </g>
      <path id="Path_785" data-name="Path 785" d="M400.35,346.063l1.982,5.444a1.509,1.509,0,0,0,1.934.9h0a1.509,1.509,0,0,0,.9-1.933l-1.981-5.444a.5.5,0,0,0-.647-.3l-1.887.687A.5.5,0,0,0,400.35,346.063Z" transform="translate(-396.561 -338.66)" fill="#fd7ba2"/>
      <path id="Path_786" data-name="Path 786" d="M422.572,350.475l-1.981-5.444a.5.5,0,0,0-.647-.3l-.984.358c.153-.056.354.112.449.373l1.981,5.444a1.6,1.6,0,0,1-.113,1.589,1.509,1.509,0,0,0,.393-.086h0A1.508,1.508,0,0,0,422.572,350.475Z" transform="translate(-413.967 -338.66)" fill="#e9488e"/>
      <path id="Path_787" data-name="Path 787" d="M410.486,368.588l-.34-.934h0l-2.835,1.032h0l.34.934h0Z" transform="translate(-403.089 -360.095)" fill="#606572"/>
      <path id="Path_788" data-name="Path 788" d="M433.45,367.654l-1.182.43.34.934,1.182-.43Z" transform="translate(-426.393 -360.095)" fill="#3b4254"/>
    </g>
    <g id="Group_473" data-name="Group 473" transform="translate(310 387.131)">
      <path id="Path_789" data-name="Path 789" d="M51.839,290.139v4.893H47.331v-6.969a.456.456,0,0,1,.058-.23c.28-.484,1.489-.309,2.7.391C51.133,288.827,51.839,289.62,51.839,290.139Z" transform="translate(-46.656 -287.56)" fill="#ff7870"/>
      <path id="Path_790" data-name="Path 790" d="M92.573,299.772v6.663h1.511v-4.893C94.084,301.064,93.484,300.352,92.573,299.772Z" transform="translate(-88.9 -298.963)" fill="#d7352e"/>
      <path id="Path_791" data-name="Path 791" d="M42.326,400.351H37.809a.671.671,0,0,0-.671.671v6.055a.671.671,0,0,0,.671.671h4.517a.671.671,0,0,0,.671-.671v-6.055A.671.671,0,0,0,42.326,400.351Z" transform="translate(-37.138 -392.879)" fill="#78baf6"/>
      <path id="Path_792" data-name="Path 792" d="M94.151,400.351H92.64a.671.671,0,0,1,.671.671v6.055a.671.671,0,0,1-.671.671h1.511a.671.671,0,0,0,.671-.671v-6.055A.671.671,0,0,0,94.151,400.351Z" transform="translate(-88.963 -392.879)" fill="#1885da"/>
      <path id="Path_793" data-name="Path 793" d="M51.84,290.139a.449.449,0,0,1-.059.231c-.279.484-1.49.309-2.7-.391-1.042-.6-1.747-1.4-1.747-1.915a.456.456,0,0,1,.058-.23c.28-.484,1.489-.309,2.7.391C51.134,288.827,51.84,289.62,51.84,290.139Z" transform="translate(-46.657 -287.56)" fill="#ff9794"/>
      <rect id="Rectangle_1453" data-name="Rectangle 1453" width="5.859" height="0.994" transform="translate(0 8.999)" fill="#606572"/>
      <rect id="Rectangle_1454" data-name="Rectangle 1454" width="1.511" height="0.994" transform="translate(4.348 8.999)" fill="#3b4254"/>
    </g>
    <g transform="matrix(1, 0, 0, 1, 287.5, 354.5)" filter="url(#Path_794)">
      <path id="Path_794-2" data-name="Path 794" d="M53,38A15,15,0,0,1,38,53H15A15,15,0,0,1,0,38a133.5,133.5,0,0,1,24.685-2.425A209.509,209.509,0,0,1,53,38Z" transform="translate(7.5 9.5)" fill="#b7415a"/>
    </g>
    <g transform="matrix(1, 0, 0, 1, 287.5, 354.5)" filter="url(#Path_795)">
      <path id="Path_795-2" data-name="Path 795" d="M53,38A15,15,0,0,1,38,53H15A15,15,0,0,1,0,38s3.45,8.961,13.319,8.961c5.4,0,15.4-9.166,24.419-11.092A21.465,21.465,0,0,1,53,38Z" transform="translate(7.5 9.5)" fill="#efa4b8"/>
    </g>
    <g transform="matrix(1, 0, 0, 1, 287.5, 354.5)" filter="url(#Path_796)">
      <path id="Path_796-2" data-name="Path 796" d="M53,38A15,15,0,0,1,38,53H15A15,15,0,0,1,0,38s3.45,8.961,13.319,8.961c5.4,0,14.683-6.176,23.7-8.1A48.884,48.884,0,0,1,53,38Z" transform="translate(7.5 9.5)" fill="#f57a90"/>
    </g>
  </g>
</svg>
