<svg xmlns="http://www.w3.org/2000/svg" xmlns:xlink="http://www.w3.org/1999/xlink" width="68" height="70" viewBox="0 0 68 70">
  <defs>
    <filter id="Rectangle_1443" x="0" y="0" width="68" height="68" filterUnits="userSpaceOnUse">
      <feOffset input="SourceAlpha"/>
      <feGaussianBlur stdDeviation="2.5" result="blur"/>
      <feFlood flood-opacity="0.251"/>
      <feComposite operator="in" in2="blur"/>
      <feComposite in="SourceGraphic"/>
    </filter>
    <filter id="Path_742" x="0" y="37.575" width="68" height="32.425" filterUnits="userSpaceOnUse">
      <feOffset input="SourceAlpha"/>
      <feGaussianBlur stdDeviation="2.5" result="blur-2"/>
      <feFlood flood-opacity="0.098"/>
      <feComposite operator="in" in2="blur-2"/>
      <feComposite in="SourceGraphic"/>
    </filter>
    <filter id="Path_743" x="0" y="37.351" width="68" height="32.649" filterUnits="userSpaceOnUse">
      <feOffset input="SourceAlpha"/>
      <feGaussianBlur stdDeviation="2.5" result="blur-3"/>
      <feFlood flood-opacity="0.098"/>
      <feComposite operator="in" in2="blur-3"/>
      <feComposite in="SourceGraphic"/>
    </filter>
    <filter id="Path_747" x="0" y="39.705" width="68" height="30.295" filterUnits="userSpaceOnUse">
      <feOffset input="SourceAlpha"/>
      <feGaussianBlur stdDeviation="2.5" result="blur-4"/>
      <feFlood flood-opacity="0.098"/>
      <feComposite operator="in" in2="blur-4"/>
      <feComposite in="SourceGraphic"/>
    </filter>
  </defs>
  <g id="Group_648" data-name="Group 648" transform="translate(-108.5 -354.5)">
    <g transform="matrix(1, 0, 0, 1, 108.5, 354.5)" filter="url(#Rectangle_1443)">
      <rect id="Rectangle_1443-2" data-name="Rectangle 1443" width="53" height="53" rx="15" transform="translate(7.5 7.5)" fill="#fff"/>
    </g>
    <path id="Path_734" data-name="Path 734" d="M43.464,46.455a1.859,1.859,0,0,0,.093-.578V24.667a1.8,1.8,0,0,0-1.779-1.82h-9.9V45.422a3.119,3.119,0,0,1-.177,1.032H30.54a1.859,1.859,0,0,0,.093-.578V16.746a1.8,1.8,0,0,0-1.779-1.82H13.323a1.8,1.8,0,0,0-1.778,1.82V50.218H46.283V46.455Zm-18.418-.122H17.562V36.774h7.484ZM21.089,28.581a6.42,6.42,0,1,1,6.269-6.418A6.345,6.345,0,0,1,21.089,28.581ZM37.273,39.019H34.724V36.41h2.549Zm0-4.581H34.724v-2.61h2.549Zm0-4.43H34.724V27.4h2.549Zm3.972,9.012H38.7V36.41h2.549Zm0-4.581H38.7v-2.61h2.549Zm0-4.43H38.7V27.4h2.549Z" transform="translate(116.525 351.213)" fill="#bebdc2"/>
    <g id="forest" transform="translate(124 383.966)">
      <path id="Path_738" data-name="Path 738" d="M8.8,12.293h0A3.728,3.728,0,0,1,5.1,8.113l.662-5.424A3.06,3.06,0,0,1,8.8,0h0a3.06,3.06,0,0,1,3.038,2.689L12.5,8.113A3.727,3.727,0,0,1,8.8,12.293Z" transform="translate(-5.076)" fill="#138431"/>
      <path id="Path_739" data-name="Path 739" d="M118.1,12.293h0V0h0a3.06,3.06,0,0,1,3.038,2.689l.662,5.424A3.727,3.727,0,0,1,118.1,12.293Z" transform="translate(-114.368)" fill="#138431"/>
      <path id="Path_740" data-name="Path 740" d="M53.545,115.917l-1.308.688v-2.514l1.769-.93-.461-.876-1.308.688v-1.446h-.99v3.262L49.94,114.1l-.461.876,1.769.93v8.83h.99v-7.014l1.769-.93Z" transform="translate(-48.014 -107.848)" fill="#bebdc2"/>
    </g>
    <path id="Union_3" data-name="Union 3" d="M3.415,9.828V6.143H0V3.686H3.415V0H5.693V3.686H9.11V6.143H5.693V9.828Z" transform="translate(133.087 368.681)" fill="#ef7070"/>
    <g transform="matrix(1, 0, 0, 1, 108.5, 354.5)" filter="url(#Path_742)">
      <path id="Path_742-2" data-name="Path 742" d="M53,38A15,15,0,0,1,38,53H15A15,15,0,0,1,0,38a133.5,133.5,0,0,1,24.685-2.425A209.509,209.509,0,0,1,53,38Z" transform="translate(7.5 9.5)" fill="#255d33"/>
    </g>
    <g transform="matrix(1, 0, 0, 1, 108.5, 354.5)" filter="url(#Path_743)">
      <path id="Path_743-2" data-name="Path 743" d="M53,38A15,15,0,0,1,38,53H15A15,15,0,0,1,0,38s3.45,8.961,13.319,8.961c5.4,0,15.4-9.166,24.419-11.092A21.465,21.465,0,0,1,53,38Z" transform="translate(7.5 9.5)" fill="#09c73c"/>
    </g>
    <g transform="matrix(1, 0, 0, 1, 108.5, 354.5)" filter="url(#Path_747)">
      <path id="Path_747-2" data-name="Path 747" d="M53,38A15,15,0,0,1,38,53H15A15,15,0,0,1,0,38s3.45,8.961,13.319,8.961c5.4,0,14.683-6.176,23.7-8.1A48.884,48.884,0,0,1,53,38Z" transform="translate(7.5 9.5)" fill="#138431"/>
    </g>
  </g>
</svg>
